solid spacecam_01
facet normal -5.05017472846305e-33 -7.89948349436567e-33 1.0
  outer loop
    vertex -23.0428595872566 -23.0550329219071 7.00000000000005
    vertex -27.8233187533178 -11.1154858235662 7.00000000000005
    vertex -27.8233187533178 -16.8250172428649 7.00000000000005
  endloop
endfacet
facet normal -5.05017472846305e-33 -7.89948349436567e-33 1.0
  outer loop
    vertex -27.8233187533178 -11.1154858235662 7.00000000000005
    vertex -23.0428595872566 -23.0550329219071 7.00000000000005
    vertex -27.8233187533178 11.0953670003891 7.00000000000005
  endloop
endfacet
facet normal -5.05017472846305e-33 -7.89948349436567e-33 1.0
  outer loop
    vertex -8.42949160391177 -31.4920648608584 7.00000000000005
    vertex -12.4924596649604 -0.00463299961091086 7.00000000000005
    vertex -16.2915537590779 -28.2354920879683 7.00000000000005
  endloop
endfacet
facet normal -5.05017472846305e-33 -7.89948349436567e-33 1.0
  outer loop
    vertex -12.4924596649604 -0.00463299961091086 7.00000000000005
    vertex -8.42949160391177 -31.4920648608584 7.00000000000005
    vertex -12.0665324935738 -3.23987106339242 7.00000000000005
  endloop
endfacet
facet normal -5.05017472846305e-33 -7.89948349436567e-33 1.0
  outer loop
    vertex -12.0665324935738 -3.23987106339242 7.00000000000005
    vertex -8.42949160391177 -31.4920648608584 7.00000000000005
    vertex -10.8177772122659 -6.25463299961091 7.00000000000005
  endloop
endfacet
facet normal -5.05017472846305e-33 -7.89948349436567e-33 1.0
  outer loop
    vertex -10.8177772122659 -6.25463299961091 7.00000000000005
    vertex -8.42949160391177 -31.4920648608584 7.00000000000005
    vertex -8.83129442979227 -8.84346776444276 7.00000000000005
  endloop
endfacet
facet normal -5.05017472846305e-33 -7.89948349436567e-33 1.0
  outer loop
    vertex -8.83129442979227 -8.84346776444276 7.00000000000005
    vertex -8.42949160391177 -31.4920648608584 7.00000000000005
    vertex -6.24245966496042 -10.8299505469164 7.00000000000005
  endloop
endfacet
facet normal -5.05017472846305e-33 -7.89948349436567e-33 1.0
  outer loop
    vertex -6.24245966496042 -10.8299505469164 7.00000000000005
    vertex -8.42949160391177 -31.4920648608584 7.00000000000005
    vertex 0.00754033503956553 -32.6028211878459 7.00000000000005
  endloop
endfacet
facet normal -5.05017472846305e-33 -7.89948349436567e-33 1.0
  outer loop
    vertex -6.24245966496042 -10.8299505469164 7.00000000000005
    vertex 0.00754033503956553 -32.6028211878459 7.00000000000005
    vertex -3.22769772874194 -12.0787058282243 7.00000000000005
  endloop
endfacet
facet normal -5.05017472846305e-33 -7.89948349436567e-33 1.0
  outer loop
    vertex -3.22769772874194 -12.0787058282243 7.00000000000005
    vertex 0.00754033503956553 -32.6028211878459 7.00000000000005
    vertex 0.00754033503957681 -12.5046329996109 7.00000000000005
  endloop
endfacet
facet normal -5.05017472846305e-33 -7.89948349436567e-33 1.0
  outer loop
    vertex 0.00754033503957681 -12.5046329996109 7.00000000000005
    vertex 0.00754033503956553 -32.6028211878459 7.00000000000005
    vertex 8.44457227399084 -31.4920648608584 7.00000000000005
  endloop
endfacet
facet normal -5.05017472846305e-33 -7.89948349436567e-33 1.0
  outer loop
    vertex 0.00754033503957681 -12.5046329996109 7.00000000000005
    vertex 8.44457227399084 -31.4920648608584 7.00000000000005
    vertex 3.24277839882108 -12.0787058282243 7.00000000000005
  endloop
endfacet
facet normal -5.05017472846305e-33 -7.89948349436567e-33 1.0
  outer loop
    vertex 3.24277839882108 -12.0787058282243 7.00000000000005
    vertex 8.44457227399084 -31.4920648608584 7.00000000000005
    vertex 6.25754033503958 -10.8299505469164 7.00000000000005
  endloop
endfacet
facet normal -5.05017472846305e-33 -7.89948349436567e-33 1.0
  outer loop
    vertex 6.25754033503958 -10.8299505469164 7.00000000000005
    vertex 8.44457227399084 -31.4920648608584 7.00000000000005
    vertex 8.84637509987142 -8.84346776444276 7.00000000000005
  endloop
endfacet
facet normal -5.05017472846305e-33 -7.89948349436567e-33 1.0
  outer loop
    vertex 8.84637509987142 -8.84346776444276 7.00000000000005
    vertex 8.44457227399084 -31.4920648608584 7.00000000000005
    vertex 16.3066344291571 -28.2354920879683 7.00000000000005
  endloop
endfacet
facet normal -5.05017472846305e-33 -7.89948349436567e-33 1.0
  outer loop
    vertex 8.84637509987142 -8.84346776444276 7.00000000000005
    vertex 16.3066344291571 -28.2354920879683 7.00000000000005
    vertex 10.8328578823451 -6.25463299961092 7.00000000000005
  endloop
endfacet
facet normal -5.05017472846305e-33 -7.89948349436567e-33 1.0
  outer loop
    vertex 10.8328578823451 -6.25463299961092 7.00000000000005
    vertex 16.3066344291571 -28.2354920879683 7.00000000000005
    vertex 12.0816131636529 -3.23987106339243 7.00000000000005
  endloop
endfacet
facet normal -5.05017472846305e-33 -7.89948349436567e-33 1.0
  outer loop
    vertex 12.0816131636529 -3.23987106339243 7.00000000000005
    vertex 16.3066344291571 -28.2354920879683 7.00000000000005
    vertex 12.5075403350396 -0.0046329996109165 7.00000000000005
  endloop
endfacet
facet normal -5.05017472846305e-33 -7.89948349436567e-33 1.0
  outer loop
    vertex -27.8233187533178 11.0953670003891 7.00000000000005
    vertex -23.0428595872566 23.0457669226853 7.00000000000005
    vertex -27.8233187533178 16.8157512436431 7.00000000000005
  endloop
endfacet
facet normal -5.05017472846305e-33 -7.89948349436567e-33 1.0
  outer loop
    vertex -23.0428595872566 23.0457669226853 7.00000000000005
    vertex -27.8233187533178 11.0953670003891 7.00000000000005
    vertex -23.0428595872566 -23.0550329219071 7.00000000000005
  endloop
endfacet
facet normal -5.05017472846305e-33 -7.89948349436567e-33 1.0
  outer loop
    vertex -23.0428595872566 23.0457669226853 7.00000000000005
    vertex -23.0428595872566 -23.0550329219071 7.00000000000005
    vertex -16.2915537590779 -28.2354920879683 7.00000000000005
  endloop
endfacet
facet normal -5.05017472846305e-33 -7.89948349436567e-33 1.0
  outer loop
    vertex -23.0428595872566 23.0457669226853 7.00000000000005
    vertex -16.2915537590779 -28.2354920879683 7.00000000000005
    vertex -16.2915537590779 28.2262260887464 7.00000000000005
  endloop
endfacet
facet normal -5.05017472846305e-33 -7.89948349436567e-33 1.0
  outer loop
    vertex -16.2915537590779 28.2262260887464 7.00000000000005
    vertex -16.2915537590779 -28.2354920879683 7.00000000000005
    vertex -8.42949160391165 31.4827988616366 7.00000000000005
  endloop
endfacet
facet normal -5.05017472846305e-33 -7.89948349436567e-33 1.0
  outer loop
    vertex -8.42949160391165 31.4827988616366 7.00000000000005
    vertex -16.2915537590779 -28.2354920879683 7.00000000000005
    vertex -12.4924596649604 -0.00463299961091086 7.00000000000005
  endloop
endfacet
facet normal -5.05017472846305e-33 -7.89948349436567e-33 1.0
  outer loop
    vertex -8.42949160391165 31.4827988616366 7.00000000000005
    vertex -12.4924596649604 -0.00463299961091086 7.00000000000005
    vertex -12.0665324935738 3.2306050641706 7.00000000000005
  endloop
endfacet
facet normal -5.05017472846305e-33 -7.89948349436567e-33 1.0
  outer loop
    vertex -8.42949160391165 31.4827988616366 7.00000000000005
    vertex -12.0665324935738 3.2306050641706 7.00000000000005
    vertex -10.8177772122659 6.24536700038909 7.00000000000005
  endloop
endfacet
facet normal -5.05017472846305e-33 -7.89948349436567e-33 1.0
  outer loop
    vertex -8.42949160391165 31.4827988616366 7.00000000000005
    vertex -10.8177772122659 6.24536700038909 7.00000000000005
    vertex -8.83129442979227 8.83420176522093 7.00000000000005
  endloop
endfacet
facet normal -5.05017472846305e-33 -7.89948349436567e-33 1.0
  outer loop
    vertex -8.42949160391165 31.4827988616366 7.00000000000005
    vertex -8.83129442979227 8.83420176522093 7.00000000000005
    vertex -6.24245966496042 10.8206845476946 7.00000000000005
  endloop
endfacet
facet normal -5.05017472846305e-33 -7.89948349436567e-33 1.0
  outer loop
    vertex -8.42949160391165 31.4827988616366 7.00000000000005
    vertex -6.24245966496042 10.8206845476946 7.00000000000005
    vertex 0.00754033503956553 32.5935551886241 7.00000000000005
  endloop
endfacet
facet normal -5.05017472846305e-33 -7.89948349436567e-33 1.0
  outer loop
    vertex 0.00754033503956553 32.5935551886241 7.00000000000005
    vertex -6.24245966496042 10.8206845476946 7.00000000000005
    vertex -3.22769772874193 12.0694398290024 7.00000000000005
  endloop
endfacet
facet normal -5.05017472846305e-33 -7.89948349436567e-33 1.0
  outer loop
    vertex 0.00754033503956553 32.5935551886241 7.00000000000005
    vertex -3.22769772874193 12.0694398290024 7.00000000000005
    vertex 0.00754033503957681 12.4953670003891 7.00000000000005
  endloop
endfacet
facet normal -5.05017472846305e-33 -7.89948349436567e-33 1.0
  outer loop
    vertex 0.00754033503956553 32.5935551886241 7.00000000000005
    vertex 0.00754033503957681 12.4953670003891 7.00000000000005
    vertex 8.44457227399087 31.4827988616365 7.00000000000005
  endloop
endfacet
facet normal -5.05017472846305e-33 -7.89948349436567e-33 1.0
  outer loop
    vertex 8.44457227399087 31.4827988616365 7.00000000000005
    vertex 0.00754033503957681 12.4953670003891 7.00000000000005
    vertex 3.24277839882109 12.0694398290024 7.00000000000005
  endloop
endfacet
facet normal -5.05017472846305e-33 -7.89948349436567e-33 1.0
  outer loop
    vertex 8.44457227399087 31.4827988616365 7.00000000000005
    vertex 3.24277839882109 12.0694398290024 7.00000000000005
    vertex 6.25754033503958 10.8206845476946 7.00000000000005
  endloop
endfacet
facet normal -5.05017472846305e-33 -7.89948349436567e-33 1.0
  outer loop
    vertex 8.44457227399087 31.4827988616365 7.00000000000005
    vertex 6.25754033503958 10.8206845476946 7.00000000000005
    vertex 8.84637509987142 8.83420176522093 7.00000000000005
  endloop
endfacet
facet normal -5.05017472846305e-33 -7.89948349436567e-33 1.0
  outer loop
    vertex 8.44457227399087 31.4827988616365 7.00000000000005
    vertex 8.84637509987142 8.83420176522093 7.00000000000005
    vertex 16.3066344291571 28.2262260887464 7.00000000000005
  endloop
endfacet
facet normal -5.05017472846305e-33 -7.89948349436567e-33 1.0
  outer loop
    vertex 16.3066344291571 28.2262260887464 7.00000000000005
    vertex 8.84637509987142 8.83420176522093 7.00000000000005
    vertex 10.8328578823451 6.24536700038908 7.00000000000005
  endloop
endfacet
facet normal -5.05017472846305e-33 -7.89948349436567e-33 1.0
  outer loop
    vertex 16.3066344291571 28.2262260887464 7.00000000000005
    vertex 10.8328578823451 6.24536700038908 7.00000000000005
    vertex 12.0816131636529 3.23060506417059 7.00000000000005
  endloop
endfacet
facet normal -5.05017472846305e-33 -7.89948349436567e-33 1.0
  outer loop
    vertex 16.3066344291571 28.2262260887464 7.00000000000005
    vertex 12.0816131636529 3.23060506417059 7.00000000000005
    vertex 12.5075403350396 -0.0046329996109165 7.00000000000005
  endloop
endfacet
facet normal -5.05017472846305e-33 -7.89948349436567e-33 1.0
  outer loop
    vertex 16.3066344291571 28.2262260887464 7.00000000000005
    vertex 12.5075403350396 -0.0046329996109165 7.00000000000005
    vertex 16.3066344291571 -28.2354920879683 7.00000000000005
  endloop
endfacet
facet normal -5.05017472846305e-33 -7.89948349436567e-33 1.0
  outer loop
    vertex 16.3066344291571 28.2262260887464 7.00000000000005
    vertex 16.3066344291571 -28.2354920879683 7.00000000000005
    vertex 23.0579402573358 -23.0550329219071 7.00000000000005
  endloop
endfacet
facet normal -5.05017472846305e-33 -7.89948349436567e-33 1.0
  outer loop
    vertex 16.3066344291571 28.2262260887464 7.00000000000005
    vertex 23.0579402573358 -23.0550329219071 7.00000000000005
    vertex 23.0579402573358 23.0457669226853 7.00000000000005
  endloop
endfacet
facet normal -5.05017472846305e-33 -7.89948349436567e-33 1.0
  outer loop
    vertex 23.0579402573358 23.0457669226853 7.00000000000005
    vertex 23.0579402573358 -23.0550329219071 7.00000000000005
    vertex 28.2383994233969 -16.3037270937285 7.00000000000005
  endloop
endfacet
facet normal -5.05017472846305e-33 -7.89948349436567e-33 1.0
  outer loop
    vertex 23.0579402573358 23.0457669226853 7.00000000000005
    vertex 28.2383994233969 -16.3037270937285 7.00000000000005
    vertex 28.2383994233969 16.2944610945066 7.00000000000005
  endloop
endfacet
facet normal -5.05017472846305e-33 -7.89948349436567e-33 1.0
  outer loop
    vertex 28.2383994233969 16.2944610945066 7.00000000000005
    vertex 28.2383994233969 -16.3037270937285 7.00000000000005
    vertex 30.1817572461691 -11.612046281448 7.00000000000005
  endloop
endfacet
facet normal -5.05017472846305e-33 -7.89948349436567e-33 1.0
  outer loop
    vertex 28.2383994233969 16.2944610945066 7.00000000000005
    vertex 30.1817572461691 -11.612046281448 7.00000000000005
    vertex 31.0414731380943 9.52724251615275 7.00000000000005
  endloop
endfacet
facet normal -5.05017472846305e-33 -7.89948349436567e-33 1.0
  outer loop
    vertex 31.0414731380943 9.52724251615275 7.00000000000005
    vertex 30.1817572461691 -11.612046281448 7.00000000000005
    vertex 31.494972196287 -8.44166493856219 7.00000000000005
  endloop
endfacet
facet normal -5.05017472846305e-33 -7.89948349436567e-33 1.0
  outer loop
    vertex 31.0414731380943 9.52724251615275 7.00000000000005
    vertex 31.494972196287 -8.44166493856219 7.00000000000005
    vertex 31.4949721962871 8.43239893934031 7.00000000000005
  endloop
endfacet
facet normal -5.05017472846305e-33 -7.89948349436567e-33 1.0
  outer loop
    vertex 31.4949721962871 8.43239893934031 7.00000000000005
    vertex 31.494972196287 -8.44166493856219 7.00000000000005
    vertex 32.6057285232746 -0.00463299961095034 7.00000000000005
  endloop
endfacet
facet normal 0.0 0.0 1.0
  outer loop
    vertex -28.7924596649604 -12.5154858235662 5.50000000000005
    vertex -29.7924596649604 12.4953670003891 5.50000000000005
    vertex -29.7924596649604 -12.5154858235662 5.50000000000005
  endloop
endfacet
facet normal 0.0 0.0 1.0
  outer loop
    vertex -29.7924596649604 12.4953670003891 5.50000000000005
    vertex -28.7924596649604 -12.5154858235662 5.50000000000005
    vertex -28.7924596649604 12.4953670003891 5.50000000000005
  endloop
endfacet
facet normal -1.0 0.0 0.0
  outer loop
    vertex -28.7924596649604 12.4953670003891 21.5
    vertex -28.7924596649604 11.0953670003891 7.00000000000005
    vertex -28.7924596649604 11.0953670003891 21.5
  endloop
endfacet
facet normal -1.0 0.0 0.0
  outer loop
    vertex -28.7924596649604 -11.1154858235662 21.5
    vertex -28.7924596649604 -12.5154858235662 5.50000000000005
    vertex -28.7924596649604 -12.5154858235662 21.5
  endloop
endfacet
facet normal -1.0 0.0 0.0
  outer loop
    vertex -28.7924596649604 -12.5154858235662 5.50000000000005
    vertex -28.7924596649604 -11.1154858235662 21.5
    vertex -28.7924596649604 -11.1154858235662 7.00000000000005
  endloop
endfacet
facet normal -1.0 0.0 0.0
  outer loop
    vertex -28.7924596649604 -12.5154858235662 5.50000000000005
    vertex -28.7924596649604 -11.1154858235662 7.00000000000005
    vertex -28.7924596649604 12.4953670003891 5.50000000000005
  endloop
endfacet
facet normal -1.0 0.0 0.0
  outer loop
    vertex -28.7924596649604 12.4953670003891 5.50000000000005
    vertex -28.7924596649604 -11.1154858235662 7.00000000000005
    vertex -28.7924596649604 11.0953670003891 7.00000000000005
  endloop
endfacet
facet normal -1.0 0.0 0.0
  outer loop
    vertex -28.7924596649604 12.4953670003891 5.50000000000005
    vertex -28.7924596649604 11.0953670003891 7.00000000000005
    vertex -28.7924596649604 12.4953670003891 21.5
  endloop
endfacet
facet normal 0.0 -1.0 0.0
  outer loop
    vertex -29.7924596649604 11.0953670003891 21.5
    vertex -31.8811834116326 11.0953670003891 7.00000000000005
    vertex -29.7924596649604 11.0953670003891 7.00000000000005
  endloop
endfacet
facet normal 0.0 -1.0 0.0
  outer loop
    vertex -31.8811834116326 11.0953670003891 7.00000000000005
    vertex -29.7924596649604 11.0953670003891 21.5
    vertex -31.8811834116326 11.0953670003891 21.5
  endloop
endfacet
facet normal 0.110602999413071 0.993864667105553 0.0
  outer loop
    vertex -29.4373233936313 16.9953670003891 21.5
    vertex -27.8233187533178 16.8157512436431 11.5
    vertex -29.4373233936313 16.9953670003891 11.5
  endloop
endfacet
facet normal 0.110602999413071 0.993864667105553 0.0
  outer loop
    vertex -27.8233187533178 16.8157512436431 11.5
    vertex -29.4373233936313 16.9953670003891 21.5
    vertex -27.8233187533178 16.8157512436431 21.5
  endloop
endfacet
facet normal 0.0 1.0 0.0
  outer loop
    vertex -28.7924596649604 -11.1154858235662 21.5
    vertex -27.8233187533178 -11.1154858235662 7.00000000000005
    vertex -28.7924596649604 -11.1154858235662 7.00000000000005
  endloop
endfacet
facet normal 0.0 1.0 0.0
  outer loop
    vertex -27.8233187533178 -11.1154858235662 7.00000000000005
    vertex -28.7924596649604 -11.1154858235662 21.5
    vertex -27.8233187533178 -11.1154858235662 21.5
  endloop
endfacet
facet normal 0.793353340291235 0.60876142900872 0.0
  outer loop
    vertex -27.8233187533178 -16.8250172428649 7.00000000000005
    vertex -23.0428595872566 -23.0550329219071 11.5
    vertex -23.0428595872566 -23.0550329219071 7.00000000000005
  endloop
endfacet
facet normal 0.793353340291235 0.60876142900872 0.0
  outer loop
    vertex -23.0428595872566 -23.0550329219071 11.5
    vertex -27.8233187533178 -16.8250172428649 7.00000000000005
    vertex -27.8233187533178 -16.8250172428649 11.5
  endloop
endfacet
facet normal 0.0 -1.0 0.0
  outer loop
    vertex -28.7924596649604 12.4953670003891 21.5
    vertex -29.7924596649604 12.4953670003891 5.50000000000005
    vertex -28.7924596649604 12.4953670003891 5.50000000000005
  endloop
endfacet
facet normal 0.0 -1.0 0.0
  outer loop
    vertex -29.7924596649604 12.4953670003891 5.50000000000005
    vertex -28.7924596649604 12.4953670003891 21.5
    vertex -29.7924596649604 12.4953670003891 21.5
  endloop
endfacet
facet normal 1.0 0.0 0.0
  outer loop
    vertex -27.8233187533178 -11.1154858235662 7.00000000000005
    vertex -27.8233187533178 -16.8250172428649 11.5
    vertex -27.8233187533178 -16.8250172428649 7.00000000000005
  endloop
endfacet
facet normal 1.0 0.0 0.0
  outer loop
    vertex -27.8233187533178 -16.8250172428649 11.5
    vertex -27.8233187533178 -11.1154858235662 7.00000000000005
    vertex -27.8233187533178 -16.8250172428649 21.5
  endloop
endfacet
facet normal 1.0 0.0 0.0
  outer loop
    vertex -27.8233187533178 -16.8250172428649 21.5
    vertex -27.8233187533178 -11.1154858235662 7.00000000000005
    vertex -27.8233187533178 -11.1154858235662 21.5
  endloop
endfacet
facet normal 0.793353340291234 -0.608761429008723 0.0
  outer loop
    vertex -23.0428595872566 23.0457669226853 7.00000000000005
    vertex -27.8233187533178 16.8157512436431 11.5
    vertex -27.8233187533178 16.8157512436431 7.00000000000005
  endloop
endfacet
facet normal 0.793353340291234 -0.608761429008723 0.0
  outer loop
    vertex -27.8233187533178 16.8157512436431 11.5
    vertex -23.0428595872566 23.0457669226853 7.00000000000005
    vertex -23.0428595872566 23.0457669226853 11.5
  endloop
endfacet
facet normal 0.0 1.0 0.0
  outer loop
    vertex -31.8766880247602 -11.1154858235662 21.5
    vertex -29.7924596649604 -11.1154858235662 7.00000000000005
    vertex -31.8766880247602 -11.1154858235662 7.00000000000005
  endloop
endfacet
facet normal 0.0 1.0 0.0
  outer loop
    vertex -29.7924596649604 -11.1154858235662 7.00000000000005
    vertex -31.8766880247602 -11.1154858235662 21.5
    vertex -29.7924596649604 -11.1154858235662 21.5
  endloop
endfacet
facet normal 0.110602999413065 -0.993864667105554 0.0
  outer loop
    vertex -27.8233187533178 -16.8250172428649 21.5
    vertex -29.4373233936313 -17.0046329996109 11.5
    vertex -27.8233187533178 -16.8250172428649 11.5
  endloop
endfacet
facet normal 0.110602999413065 -0.993864667105554 0.0
  outer loop
    vertex -29.4373233936313 -17.0046329996109 11.5
    vertex -27.8233187533178 -16.8250172428649 21.5
    vertex -29.4373233936313 -17.0046329996109 21.5
  endloop
endfacet
facet normal 1.0 9.85936035983411e-16 0.0
  outer loop
    vertex -27.8233187533178 16.8157512436431 7.00000000000005
    vertex -27.8233187533178 11.0953670003891 21.5
    vertex -27.8233187533178 11.0953670003891 7.00000000000005
  endloop
endfacet
facet normal 1.0 9.85936035983411e-16 0.0
  outer loop
    vertex -27.8233187533178 11.0953670003891 21.5
    vertex -27.8233187533178 16.8157512436431 7.00000000000005
    vertex -27.8233187533178 16.8157512436431 21.5
  endloop
endfacet
facet normal 1.0 9.85936035983411e-16 0.0
  outer loop
    vertex -27.8233187533178 16.8157512436431 21.5
    vertex -27.8233187533178 16.8157512436431 7.00000000000005
    vertex -27.8233187533178 16.8157512436431 11.5
  endloop
endfacet
facet normal 0.0 1.0 0.0
  outer loop
    vertex 30.1817572461691 -11.612046281448 11.5
    vertex 31.6860866186466 -11.612046281448 7.00000000000005
    vertex 30.1817572461691 -11.612046281448 7.00000000000005
  endloop
endfacet
facet normal 0.0 1.0 0.0
  outer loop
    vertex 31.6860866186466 -11.612046281448 7.00000000000005
    vertex 30.1817572461691 -11.612046281448 11.5
    vertex 31.6860866186466 -11.612046281448 11.5
  endloop
endfacet
facet normal 0.923879532511286 0.382683432365091 0.0
  outer loop
    vertex 29.4524040637105 16.9953670003891 4.51194637207664e-14
    vertex 32.8490184288679 8.79521453387477 7.00000000000005
    vertex 32.8490184288679 8.79521453387477 4.51194637207664e-14
  endloop
endfacet
facet normal 0.923879532511286 0.382683432365091 0.0
  outer loop
    vertex 32.8490184288679 8.79521453387477 7.00000000000005
    vertex 29.4524040637105 16.9953670003891 4.51194637207664e-14
    vertex 32.5458025105718 9.52724251615275 7.00000000000005
  endloop
endfacet
facet normal 0.923879532511286 0.382683432365091 0.0
  outer loop
    vertex 32.5458025105718 9.52724251615275 7.00000000000005
    vertex 29.4524040637105 16.9953670003891 4.51194637207664e-14
    vertex 32.5458025105718 9.52724251615275 11.5
  endloop
endfacet
facet normal 0.923879532511286 0.382683432365091 0.0
  outer loop
    vertex 32.5458025105718 9.52724251615275 11.5
    vertex 29.4524040637105 16.9953670003891 4.51194637207664e-14
    vertex 29.4524040637105 16.9953670003891 11.5
  endloop
endfacet
facet normal 0.60876142900872 -0.793353340291236 0.0
  outer loop
    vertex -16.2915537590779 28.2262260887464 11.5
    vertex -23.0428595872566 23.0457669226853 7.00000000000005
    vertex -16.2915537590779 28.2262260887464 7.00000000000005
  endloop
endfacet
facet normal 0.60876142900872 -0.793353340291236 0.0
  outer loop
    vertex -23.0428595872566 23.0457669226853 7.00000000000005
    vertex -16.2915537590779 28.2262260887464 11.5
    vertex -23.0428595872566 23.0457669226853 11.5
  endloop
endfacet
facet normal 0.0 0.0 1.0
  outer loop
    vertex -27.8233187533178 16.8157512436431 11.5
    vertex -24.034090225303 24.0369975607317 11.5
    vertex -29.4373233936313 16.9953670003891 11.5
  endloop
endfacet
facet normal 0.0 0.0 1.0
  outer loop
    vertex -24.034090225303 24.0369975607317 11.5
    vertex -27.8233187533178 16.8157512436431 11.5
    vertex -23.0428595872566 23.0457669226853 11.5
  endloop
endfacet
facet normal 0.0 0.0 1.0
  outer loop
    vertex -24.034090225303 24.0369975607317 11.5
    vertex -23.0428595872566 23.0457669226853 11.5
    vertex -16.9924596649604 29.44023072906 11.5
  endloop
endfacet
facet normal 0.0 0.0 1.0
  outer loop
    vertex -16.9924596649604 29.44023072906 11.5
    vertex -23.0428595872566 23.0457669226853 11.5
    vertex -16.2915537590779 28.2262260887464 11.5
  endloop
endfacet
facet normal 0.0 0.0 1.0
  outer loop
    vertex -16.9924596649604 29.44023072906 11.5
    vertex -16.2915537590779 28.2262260887464 11.5
    vertex -8.79230719844613 32.8368450942174 11.5
  endloop
endfacet
facet normal 0.0 0.0 1.0
  outer loop
    vertex -8.79230719844613 32.8368450942174 11.5
    vertex -16.2915537590779 28.2262260887464 11.5
    vertex -8.42949160391165 31.4827988616366 11.5
  endloop
endfacet
facet normal 0.0 0.0 1.0
  outer loop
    vertex -8.79230719844613 32.8368450942174 11.5
    vertex -8.42949160391165 31.4827988616366 11.5
    vertex 0.00754033503957681 33.9953670003891 11.5
  endloop
endfacet
facet normal 0.0 0.0 1.0
  outer loop
    vertex 0.00754033503957681 33.9953670003891 11.5
    vertex -8.42949160391165 31.4827988616366 11.5
    vertex 0.00754033503956553 32.5935551886241 11.5
  endloop
endfacet
facet normal 0.0 0.0 1.0
  outer loop
    vertex 0.00754033503957681 33.9953670003891 11.5
    vertex 0.00754033503956553 32.5935551886241 11.5
    vertex 8.44457227399087 31.4827988616365 11.5
  endloop
endfacet
facet normal 0.0 0.0 1.0
  outer loop
    vertex 0.00754033503957681 33.9953670003891 11.5
    vertex 8.44457227399087 31.4827988616365 11.5
    vertex 8.80738786852531 32.8368450942174 11.5
  endloop
endfacet
facet normal 0.0 0.0 1.0
  outer loop
    vertex 8.80738786852531 32.8368450942174 11.5
    vertex 8.44457227399087 31.4827988616365 11.5
    vertex 16.3066344291571 28.2262260887464 11.5
  endloop
endfacet
facet normal 0.0 0.0 1.0
  outer loop
    vertex 8.80738786852531 32.8368450942174 11.5
    vertex 16.3066344291571 28.2262260887464 11.5
    vertex 17.0075403350396 29.44023072906 11.5
  endloop
endfacet
facet normal 0.0 0.0 1.0
  outer loop
    vertex 17.0075403350396 29.44023072906 11.5
    vertex 16.3066344291571 28.2262260887464 11.5
    vertex 23.0579402573358 23.0457669226853 11.5
  endloop
endfacet
facet normal 0.0 0.0 1.0
  outer loop
    vertex 17.0075403350396 29.44023072906 11.5
    vertex 23.0579402573358 23.0457669226853 11.5
    vertex 24.0491708953822 24.0369975607317 11.5
  endloop
endfacet
facet normal 0.0 0.0 1.0
  outer loop
    vertex 24.0491708953822 24.0369975607317 11.5
    vertex 23.0579402573358 23.0457669226853 11.5
    vertex 28.2383994233969 16.2944610945066 11.5
  endloop
endfacet
facet normal 0.0 0.0 1.0
  outer loop
    vertex 24.0491708953822 24.0369975607317 11.5
    vertex 28.2383994233969 16.2944610945066 11.5
    vertex 29.4524040637105 16.9953670003891 11.5
  endloop
endfacet
facet normal 0.0 0.0 1.0
  outer loop
    vertex 29.4524040637105 16.9953670003891 11.5
    vertex 28.2383994233969 16.2944610945066 11.5
    vertex 31.0414731380943 9.52724251615275 11.5
  endloop
endfacet
facet normal 0.0 0.0 1.0
  outer loop
    vertex 29.4524040637105 16.9953670003891 11.5
    vertex 31.0414731380943 9.52724251615275 11.5
    vertex 32.5458025105718 9.52724251615275 11.5
  endloop
endfacet
facet normal 0.0 1.0 0.0
  outer loop
    vertex -29.7924596649604 -12.5154858235662 21.5
    vertex -28.7924596649604 -12.5154858235662 5.50000000000005
    vertex -29.7924596649604 -12.5154858235662 5.50000000000005
  endloop
endfacet
facet normal 0.0 1.0 0.0
  outer loop
    vertex -28.7924596649604 -12.5154858235662 5.50000000000005
    vertex -29.7924596649604 -12.5154858235662 21.5
    vertex -28.7924596649604 -12.5154858235662 21.5
  endloop
endfacet
facet normal 1.0 0.0 0.0
  outer loop
    vertex -29.7924596649604 -12.5154858235662 5.50000000000005
    vertex -29.7924596649604 -11.1154858235662 7.00000000000005
    vertex -29.7924596649604 -12.5154858235662 21.5
  endloop
endfacet
facet normal 1.0 0.0 0.0
  outer loop
    vertex -29.7924596649604 -11.1154858235662 7.00000000000005
    vertex -29.7924596649604 -12.5154858235662 5.50000000000005
    vertex -29.7924596649604 12.4953670003891 5.50000000000005
  endloop
endfacet
facet normal 1.0 0.0 0.0
  outer loop
    vertex -29.7924596649604 -11.1154858235662 7.00000000000005
    vertex -29.7924596649604 12.4953670003891 5.50000000000005
    vertex -29.7924596649604 11.0953670003891 7.00000000000005
  endloop
endfacet
facet normal 1.0 0.0 0.0
  outer loop
    vertex -29.7924596649604 11.0953670003891 7.00000000000005
    vertex -29.7924596649604 12.4953670003891 5.50000000000005
    vertex -29.7924596649604 11.0953670003891 21.5
  endloop
endfacet
facet normal 1.0 0.0 0.0
  outer loop
    vertex -29.7924596649604 11.0953670003891 21.5
    vertex -29.7924596649604 12.4953670003891 5.50000000000005
    vertex -29.7924596649604 12.4953670003891 21.5
  endloop
endfacet
facet normal 1.0 0.0 0.0
  outer loop
    vertex -29.7924596649604 -11.1154858235662 21.5
    vertex -29.7924596649604 -12.5154858235662 21.5
    vertex -29.7924596649604 -11.1154858235662 7.00000000000005
  endloop
endfacet
facet normal 0.0 0.0 1.0
  outer loop
    vertex -29.4373233936313 -17.0046329996109 21.5
    vertex -29.7924596649604 -12.5154858235662 21.5
    vertex -31.2967890374379 -12.5154858235662 21.5
  endloop
endfacet
facet normal 0.0 0.0 1.0
  outer loop
    vertex -29.7924596649604 -12.5154858235662 21.5
    vertex -29.4373233936313 -17.0046329996109 21.5
    vertex -28.7924596649604 -12.5154858235662 21.5
  endloop
endfacet
facet normal 0.0 0.0 1.0
  outer loop
    vertex -28.7924596649604 -12.5154858235662 21.5
    vertex -29.4373233936313 -17.0046329996109 21.5
    vertex -27.8233187533178 -16.8250172428649 21.5
  endloop
endfacet
facet normal 0.0 0.0 1.0
  outer loop
    vertex -28.7924596649604 -12.5154858235662 21.5
    vertex -27.8233187533178 -16.8250172428649 21.5
    vertex -28.7924596649604 -11.1154858235662 21.5
  endloop
endfacet
facet normal 0.0 0.0 1.0
  outer loop
    vertex -28.7924596649604 -11.1154858235662 21.5
    vertex -27.8233187533178 -16.8250172428649 21.5
    vertex -27.8233187533178 -11.1154858235662 21.5
  endloop
endfacet
facet normal 0.0 0.0 1.0
  outer loop
    vertex -31.2967890374379 -12.5154858235662 21.5
    vertex -29.7924596649604 -11.1154858235662 21.5
    vertex -31.8766880247602 -11.1154858235662 21.5
  endloop
endfacet
facet normal 0.0 0.0 1.0
  outer loop
    vertex -29.7924596649604 -11.1154858235662 21.5
    vertex -31.2967890374379 -12.5154858235662 21.5
    vertex -29.7924596649604 -12.5154858235662 21.5
  endloop
endfacet
facet normal 0.0 -1.0 0.0
  outer loop
    vertex 32.5458025105718 9.52724251615275 11.5
    vertex 31.0414731380943 9.52724251615275 7.00000000000005
    vertex 32.5458025105718 9.52724251615275 7.00000000000005
  endloop
endfacet
facet normal 0.0 -1.0 0.0
  outer loop
    vertex 31.0414731380943 9.52724251615275 7.00000000000005
    vertex 32.5458025105718 9.52724251615275 11.5
    vertex 31.0414731380943 9.52724251615275 11.5
  endloop
endfacet
facet normal 0.382683432365092 -0.923879532511286 0.0
  outer loop
    vertex -8.42949160391165 31.4827988616366 11.5
    vertex -16.2915537590779 28.2262260887464 7.00000000000005
    vertex -8.42949160391165 31.4827988616366 7.00000000000005
  endloop
endfacet
facet normal 0.382683432365092 -0.923879532511286 0.0
  outer loop
    vertex -16.2915537590779 28.2262260887464 7.00000000000005
    vertex -8.42949160391165 31.4827988616366 11.5
    vertex -16.2915537590779 28.2262260887464 11.5
  endloop
endfacet
facet normal 0.0 0.0 1.0
  outer loop
    vertex -27.8233187533178 -11.1154858235662 7.00000000000005
    vertex -28.7924596649604 11.0953670003891 7.00000000000005
    vertex -28.7924596649604 -11.1154858235662 7.00000000000005
  endloop
endfacet
facet normal 0.0 0.0 1.0
  outer loop
    vertex -28.7924596649604 11.0953670003891 7.00000000000005
    vertex -27.8233187533178 -11.1154858235662 7.00000000000005
    vertex -27.8233187533178 11.0953670003891 7.00000000000005
  endloop
endfacet
facet normal 0.60876142900872 0.793353340291236 0.0
  outer loop
    vertex -23.0428595872566 -23.0550329219071 11.5
    vertex -16.2915537590779 -28.2354920879683 7.00000000000005
    vertex -23.0428595872566 -23.0550329219071 7.00000000000005
  endloop
endfacet
facet normal 0.60876142900872 0.793353340291236 0.0
  outer loop
    vertex -16.2915537590779 -28.2354920879683 7.00000000000005
    vertex -23.0428595872566 -23.0550329219071 11.5
    vertex -16.2915537590779 -28.2354920879683 11.5
  endloop
endfacet
facet normal 0.382683432365092 0.923879532511286 0.0
  outer loop
    vertex -16.2915537590779 -28.2354920879683 11.5
    vertex -8.42949160391177 -31.4920648608584 7.00000000000005
    vertex -16.2915537590779 -28.2354920879683 7.00000000000005
  endloop
endfacet
facet normal 0.382683432365092 0.923879532511286 0.0
  outer loop
    vertex -8.42949160391177 -31.4920648608584 7.00000000000005
    vertex -16.2915537590779 -28.2354920879683 11.5
    vertex -8.42949160391177 -31.4920648608584 11.5
  endloop
endfacet
facet normal -0.923879532511286 -0.382683432365091 0.0
  outer loop
    vertex 28.2383994233969 16.2944610945066 11.5
    vertex 31.0414731380943 9.52724251615275 7.00000000000005
    vertex 31.0414731380943 9.52724251615275 11.5
  endloop
endfacet
facet normal -0.923879532511286 -0.382683432365091 0.0
  outer loop
    vertex 31.0414731380943 9.52724251615275 7.00000000000005
    vertex 28.2383994233969 16.2944610945066 11.5
    vertex 28.2383994233969 16.2944610945066 7.00000000000005
  endloop
endfacet
facet normal -0.793353340291236 -0.608761429008719 -0.0
  outer loop
    vertex 23.0579402573358 23.0457669226853 11.5
    vertex 28.2383994233969 16.2944610945066 7.00000000000005
    vertex 28.2383994233969 16.2944610945066 11.5
  endloop
endfacet
facet normal -0.793353340291236 -0.608761429008719 -0.0
  outer loop
    vertex 28.2383994233969 16.2944610945066 7.00000000000005
    vertex 23.0579402573358 23.0457669226853 11.5
    vertex 23.0579402573358 23.0457669226853 7.00000000000005
  endloop
endfacet
facet normal 0.0 0.0 1.0
  outer loop
    vertex -27.8233187533178 11.0953670003891 21.5
    vertex -28.7924596649604 12.4953670003891 21.5
    vertex -28.7924596649604 11.0953670003891 21.5
  endloop
endfacet
facet normal 0.0 0.0 1.0
  outer loop
    vertex -28.7924596649604 12.4953670003891 21.5
    vertex -27.8233187533178 11.0953670003891 21.5
    vertex -27.8233187533178 16.8157512436431 21.5
  endloop
endfacet
facet normal 0.0 0.0 1.0
  outer loop
    vertex -29.7924596649604 11.0953670003891 21.5
    vertex -31.3012844243103 12.4953670003891 21.5
    vertex -31.8811834116326 11.0953670003891 21.5
  endloop
endfacet
facet normal 0.0 0.0 1.0
  outer loop
    vertex -31.3012844243103 12.4953670003891 21.5
    vertex -29.7924596649604 11.0953670003891 21.5
    vertex -29.7924596649604 12.4953670003891 21.5
  endloop
endfacet
facet normal 0.0 0.0 1.0
  outer loop
    vertex -31.3012844243103 12.4953670003891 21.5
    vertex -29.7924596649604 12.4953670003891 21.5
    vertex -29.4373233936313 16.9953670003891 21.5
  endloop
endfacet
facet normal 0.0 0.0 1.0
  outer loop
    vertex -29.4373233936313 16.9953670003891 21.5
    vertex -29.7924596649604 12.4953670003891 21.5
    vertex -28.7924596649604 12.4953670003891 21.5
  endloop
endfacet
facet normal 0.0 0.0 1.0
  outer loop
    vertex -29.4373233936313 16.9953670003891 21.5
    vertex -28.7924596649604 12.4953670003891 21.5
    vertex -27.8233187533178 16.8157512436431 21.5
  endloop
endfacet
facet normal 0.0 0.0 1.0
  outer loop
    vertex -24.034090225303 -24.0462635599535 11.5
    vertex -27.8233187533178 -16.8250172428649 11.5
    vertex -29.4373233936313 -17.0046329996109 11.5
  endloop
endfacet
facet normal 0.0 0.0 1.0
  outer loop
    vertex -27.8233187533178 -16.8250172428649 11.5
    vertex -24.034090225303 -24.0462635599535 11.5
    vertex -23.0428595872566 -23.0550329219071 11.5
  endloop
endfacet
facet normal 0.0 0.0 1.0
  outer loop
    vertex -23.0428595872566 -23.0550329219071 11.5
    vertex -24.034090225303 -24.0462635599535 11.5
    vertex -16.9924596649604 -29.4494967282818 11.5
  endloop
endfacet
facet normal 0.0 0.0 1.0
  outer loop
    vertex -23.0428595872566 -23.0550329219071 11.5
    vertex -16.9924596649604 -29.4494967282818 11.5
    vertex -16.2915537590779 -28.2354920879683 11.5
  endloop
endfacet
facet normal 0.0 0.0 1.0
  outer loop
    vertex -16.2915537590779 -28.2354920879683 11.5
    vertex -16.9924596649604 -29.4494967282818 11.5
    vertex -8.79230719844614 -32.8461110934392 11.5
  endloop
endfacet
facet normal 0.0 0.0 1.0
  outer loop
    vertex -16.2915537590779 -28.2354920879683 11.5
    vertex -8.79230719844614 -32.8461110934392 11.5
    vertex -8.42949160391177 -31.4920648608584 11.5
  endloop
endfacet
facet normal 0.0 0.0 1.0
  outer loop
    vertex -8.42949160391177 -31.4920648608584 11.5
    vertex -8.79230719844614 -32.8461110934392 11.5
    vertex 0.00754033503957681 -34.0046329996109 11.5
  endloop
endfacet
facet normal 0.0 0.0 1.0
  outer loop
    vertex -8.42949160391177 -31.4920648608584 11.5
    vertex 0.00754033503957681 -34.0046329996109 11.5
    vertex 0.00754033503956553 -32.6028211878459 11.5
  endloop
endfacet
facet normal 0.0 0.0 1.0
  outer loop
    vertex 0.00754033503956553 -32.6028211878459 11.5
    vertex 0.00754033503957681 -34.0046329996109 11.5
    vertex 8.44457227399084 -31.4920648608584 11.5
  endloop
endfacet
facet normal 0.0 0.0 1.0
  outer loop
    vertex 8.44457227399084 -31.4920648608584 11.5
    vertex 0.00754033503957681 -34.0046329996109 11.5
    vertex 8.80738786852527 -32.8461110934392 11.5
  endloop
endfacet
facet normal 0.0 0.0 1.0
  outer loop
    vertex 8.44457227399084 -31.4920648608584 11.5
    vertex 8.80738786852527 -32.8461110934392 11.5
    vertex 16.3066344291571 -28.2354920879683 11.5
  endloop
endfacet
facet normal 0.0 0.0 1.0
  outer loop
    vertex 16.3066344291571 -28.2354920879683 11.5
    vertex 8.80738786852527 -32.8461110934392 11.5
    vertex 17.0075403350396 -29.4494967282818 11.5
  endloop
endfacet
facet normal 0.0 0.0 1.0
  outer loop
    vertex 16.3066344291571 -28.2354920879683 11.5
    vertex 17.0075403350396 -29.4494967282818 11.5
    vertex 23.0579402573358 -23.0550329219071 11.5
  endloop
endfacet
facet normal 0.0 0.0 1.0
  outer loop
    vertex 23.0579402573358 -23.0550329219071 11.5
    vertex 17.0075403350396 -29.4494967282818 11.5
    vertex 24.0491708953822 -24.0462635599535 11.5
  endloop
endfacet
facet normal 0.0 0.0 1.0
  outer loop
    vertex 23.0579402573358 -23.0550329219071 11.5
    vertex 24.0491708953822 -24.0462635599535 11.5
    vertex 28.2383994233969 -16.3037270937285 11.5
  endloop
endfacet
facet normal 0.0 0.0 1.0
  outer loop
    vertex 28.2383994233969 -16.3037270937285 11.5
    vertex 24.0491708953822 -24.0462635599535 11.5
    vertex 29.4524040637105 -17.0046329996109 11.5
  endloop
endfacet
facet normal 0.0 0.0 1.0
  outer loop
    vertex 28.2383994233969 -16.3037270937285 11.5
    vertex 29.4524040637105 -17.0046329996109 11.5
    vertex 30.1817572461691 -11.612046281448 11.5
  endloop
endfacet
facet normal 0.0 0.0 1.0
  outer loop
    vertex 30.1817572461691 -11.612046281448 11.5
    vertex 29.4524040637105 -17.0046329996109 11.5
    vertex 31.6860866186466 -11.612046281448 11.5
  endloop
endfacet
facet normal 0.991444861373811 0.130526192220051 0.0
  outer loop
    vertex 32.8490184288679 8.79521453387477 4.51194637207664e-14
    vertex 34.0075403350396 -0.00463299961092214 7.00000000000005
    vertex 34.0075403350396 -0.00463299961092214 4.51194637207664e-14
  endloop
endfacet
facet normal 0.991444861373811 0.130526192220051 0.0
  outer loop
    vertex 34.0075403350396 -0.00463299961092214 7.00000000000005
    vertex 32.8490184288679 8.79521453387477 4.51194637207664e-14
    vertex 32.8490184288679 8.79521453387477 7.00000000000005
  endloop
endfacet
facet normal 0.0 0.0 1.0
  outer loop
    vertex 31.6860866186466 -11.612046281448 7.00000000000005
    vertex 31.494972196287 -8.44166493856219 7.00000000000005
    vertex 30.1817572461691 -11.612046281448 7.00000000000005
  endloop
endfacet
facet normal 0.0 0.0 1.0
  outer loop
    vertex 31.494972196287 -8.44166493856219 7.00000000000005
    vertex 31.6860866186466 -11.612046281448 7.00000000000005
    vertex 32.6057285232746 -0.00463299961095034 7.00000000000005
  endloop
endfacet
facet normal 0.0 0.0 1.0
  outer loop
    vertex 32.6057285232746 -0.00463299961095034 7.00000000000005
    vertex 31.6860866186466 -11.612046281448 7.00000000000005
    vertex 32.8490184288679 -8.80448053309664 7.00000000000005
  endloop
endfacet
facet normal 0.0 0.0 1.0
  outer loop
    vertex 31.4949721962871 8.43239893934031 7.00000000000005
    vertex 32.5458025105718 9.52724251615275 7.00000000000005
    vertex 31.0414731380943 9.52724251615275 7.00000000000005
  endloop
endfacet
facet normal 0.0 0.0 1.0
  outer loop
    vertex 32.5458025105718 9.52724251615275 7.00000000000005
    vertex 31.4949721962871 8.43239893934031 7.00000000000005
    vertex 32.6057285232746 -0.00463299961095034 7.00000000000005
  endloop
endfacet
facet normal 0.0 0.0 1.0
  outer loop
    vertex 32.5458025105718 9.52724251615275 7.00000000000005
    vertex 32.6057285232746 -0.00463299961095034 7.00000000000005
    vertex 32.8490184288679 8.79521453387477 7.00000000000005
  endloop
endfacet
facet normal 0.0 0.0 1.0
  outer loop
    vertex 32.8490184288679 8.79521453387477 7.00000000000005
    vertex 32.6057285232746 -0.00463299961095034 7.00000000000005
    vertex 32.8490184288679 -8.80448053309664 7.00000000000005
  endloop
endfacet
facet normal 0.0 0.0 1.0
  outer loop
    vertex 32.8490184288679 8.79521453387477 7.00000000000005
    vertex 32.8490184288679 -8.80448053309664 7.00000000000005
    vertex 34.0075403350396 -0.00463299961092214 7.00000000000005
  endloop
endfacet
facet normal 0.793353340291237 0.608761429008719 0.0
  outer loop
    vertex 24.0491708953822 24.0369975607317 4.51194637207664e-14
    vertex 29.4524040637105 16.9953670003891 11.5
    vertex 29.4524040637105 16.9953670003891 4.51194637207664e-14
  endloop
endfacet
facet normal 0.793353340291237 0.608761429008719 0.0
  outer loop
    vertex 29.4524040637105 16.9953670003891 11.5
    vertex 24.0491708953822 24.0369975607317 4.51194637207664e-14
    vertex 24.0491708953822 24.0369975607317 11.5
  endloop
endfacet
facet normal -0.130526192220052 0.99144486137381 0.0
  outer loop
    vertex -8.79230719844613 32.8368450942174 11.5
    vertex 0.00754033503957681 33.9953670003891 4.51194637207664e-14
    vertex -8.79230719844613 32.8368450942174 4.51194637207664e-14
  endloop
endfacet
facet normal -0.130526192220052 0.99144486137381 0.0
  outer loop
    vertex 0.00754033503957681 33.9953670003891 4.51194637207664e-14
    vertex -8.79230719844613 32.8368450942174 11.5
    vertex 0.00754033503957681 33.9953670003891 11.5
  endloop
endfacet
facet normal 0.923879532511288 0.382683432365088 0.0
  outer loop
    vertex -12.0665324935738 -3.23987106339242 4.51194637207664e-14
    vertex -10.8177772122659 -6.25463299961091 7.00000000000005
    vertex -10.8177772122659 -6.25463299961091 4.51194637207664e-14
  endloop
endfacet
facet normal 0.923879532511288 0.382683432365088 0.0
  outer loop
    vertex -10.8177772122659 -6.25463299961091 7.00000000000005
    vertex -12.0665324935738 -3.23987106339242 4.51194637207664e-14
    vertex -12.0665324935738 -3.23987106339242 7.00000000000005
  endloop
endfacet
facet normal 0.382683432365091 0.923879532511286 0.0
  outer loop
    vertex -6.24245966496042 -10.8299505469164 7.00000000000005
    vertex -3.22769772874194 -12.0787058282243 4.51194637207664e-14
    vertex -6.24245966496042 -10.8299505469164 4.51194637207664e-14
  endloop
endfacet
facet normal 0.382683432365091 0.923879532511286 0.0
  outer loop
    vertex -3.22769772874194 -12.0787058282243 4.51194637207664e-14
    vertex -6.24245966496042 -10.8299505469164 7.00000000000005
    vertex -3.22769772874194 -12.0787058282243 7.00000000000005
  endloop
endfacet
facet normal 0.60876142900872 0.793353340291235 0.0
  outer loop
    vertex -8.83129442979227 -8.84346776444276 7.00000000000005
    vertex -6.24245966496042 -10.8299505469164 4.51194637207664e-14
    vertex -8.83129442979227 -8.84346776444276 4.51194637207664e-14
  endloop
endfacet
facet normal 0.60876142900872 0.793353340291235 0.0
  outer loop
    vertex -6.24245966496042 -10.8299505469164 4.51194637207664e-14
    vertex -8.83129442979227 -8.84346776444276 7.00000000000005
    vertex -6.24245966496042 -10.8299505469164 7.00000000000005
  endloop
endfacet
facet normal 0.60876142900872 0.793353340291236 0.0
  outer loop
    vertex 17.0075403350396 29.44023072906 11.5
    vertex 24.0491708953822 24.0369975607317 4.51194637207664e-14
    vertex 17.0075403350396 29.44023072906 4.51194637207664e-14
  endloop
endfacet
facet normal 0.60876142900872 0.793353340291236 0.0
  outer loop
    vertex 24.0491708953822 24.0369975607317 4.51194637207664e-14
    vertex 17.0075403350396 29.44023072906 11.5
    vertex 24.0491708953822 24.0369975607317 11.5
  endloop
endfacet
facet normal -0.38268343236509 0.923879532511287 0.0
  outer loop
    vertex -16.9924596649604 29.44023072906 11.5
    vertex -8.79230719844613 32.8368450942174 4.51194637207664e-14
    vertex -16.9924596649604 29.44023072906 4.51194637207664e-14
  endloop
endfacet
facet normal -0.38268343236509 0.923879532511287 0.0
  outer loop
    vertex -8.79230719844613 32.8368450942174 4.51194637207664e-14
    vertex -16.9924596649604 29.44023072906 11.5
    vertex -8.79230719844613 32.8368450942174 11.5
  endloop
endfacet
facet normal 0.99144486137381 -0.130526192220053 0.0
  outer loop
    vertex 34.0075403350396 -0.00463299961092214 4.51194637207664e-14
    vertex 32.8490184288679 -8.80448053309664 7.00000000000005
    vertex 32.8490184288679 -8.80448053309664 4.51194637207664e-14
  endloop
endfacet
facet normal 0.99144486137381 -0.130526192220053 0.0
  outer loop
    vertex 32.8490184288679 -8.80448053309664 7.00000000000005
    vertex 34.0075403350396 -0.00463299961092214 4.51194637207664e-14
    vertex 34.0075403350396 -0.00463299961092214 7.00000000000005
  endloop
endfacet
facet normal 0.99144486137381 -0.130526192220053 0.0
  outer loop
    vertex -12.0665324935738 3.2306050641706 4.51194637207664e-14
    vertex -12.4924596649604 -0.00463299961091086 7.00000000000005
    vertex -12.4924596649604 -0.00463299961091086 4.51194637207664e-14
  endloop
endfacet
facet normal 0.99144486137381 -0.130526192220053 0.0
  outer loop
    vertex -12.4924596649604 -0.00463299961091086 7.00000000000005
    vertex -12.0665324935738 3.2306050641706 4.51194637207664e-14
    vertex -12.0665324935738 3.2306050641706 7.00000000000005
  endloop
endfacet
facet normal 0.923879532511288 -0.382683432365088 0.0
  outer loop
    vertex -10.8177772122659 6.24536700038909 4.51194637207664e-14
    vertex -12.0665324935738 3.2306050641706 7.00000000000005
    vertex -12.0665324935738 3.2306050641706 4.51194637207664e-14
  endloop
endfacet
facet normal 0.923879532511288 -0.382683432365088 0.0
  outer loop
    vertex -12.0665324935738 3.2306050641706 7.00000000000005
    vertex -10.8177772122659 6.24536700038909 4.51194637207664e-14
    vertex -10.8177772122659 6.24536700038909 7.00000000000005
  endloop
endfacet
facet normal 0.793353340291235 -0.608761429008722 0.0
  outer loop
    vertex -8.83129442979227 8.83420176522093 4.51194637207664e-14
    vertex -10.8177772122659 6.24536700038909 7.00000000000005
    vertex -10.8177772122659 6.24536700038909 4.51194637207664e-14
  endloop
endfacet
facet normal 0.793353340291235 -0.608761429008722 0.0
  outer loop
    vertex -10.8177772122659 6.24536700038909 7.00000000000005
    vertex -8.83129442979227 8.83420176522093 4.51194637207664e-14
    vertex -8.83129442979227 8.83420176522093 7.00000000000005
  endloop
endfacet
facet normal 0.608761429008721 -0.793353340291235 0.0
  outer loop
    vertex -6.24245966496042 10.8206845476946 7.00000000000005
    vertex -8.83129442979227 8.83420176522093 4.51194637207664e-14
    vertex -6.24245966496042 10.8206845476946 4.51194637207664e-14
  endloop
endfacet
facet normal 0.608761429008721 -0.793353340291235 0.0
  outer loop
    vertex -8.83129442979227 8.83420176522093 4.51194637207664e-14
    vertex -6.24245966496042 10.8206845476946 7.00000000000005
    vertex -8.83129442979227 8.83420176522093 7.00000000000005
  endloop
endfacet
facet normal 0.382683432365089 -0.923879532511287 0.0
  outer loop
    vertex -3.22769772874193 12.0694398290024 7.00000000000005
    vertex -6.24245966496042 10.8206845476946 4.51194637207664e-14
    vertex -3.22769772874193 12.0694398290024 4.51194637207664e-14
  endloop
endfacet
facet normal 0.382683432365089 -0.923879532511287 0.0
  outer loop
    vertex -6.24245966496042 10.8206845476946 4.51194637207664e-14
    vertex -3.22769772874193 12.0694398290024 7.00000000000005
    vertex -6.24245966496042 10.8206845476946 7.00000000000005
  endloop
endfacet
facet normal 0.382683432365091 0.923879532511287 0.0
  outer loop
    vertex 8.80738786852531 32.8368450942174 11.5
    vertex 17.0075403350396 29.44023072906 4.51194637207664e-14
    vertex 8.80738786852531 32.8368450942174 4.51194637207664e-14
  endloop
endfacet
facet normal 0.382683432365091 0.923879532511287 0.0
  outer loop
    vertex 17.0075403350396 29.44023072906 4.51194637207664e-14
    vertex 8.80738786852531 32.8368450942174 11.5
    vertex 17.0075403350396 29.44023072906 11.5
  endloop
endfacet
facet normal 0.130526192220052 0.99144486137381 0.0
  outer loop
    vertex 0.00754033503957681 33.9953670003891 11.5
    vertex 8.80738786852531 32.8368450942174 4.51194637207664e-14
    vertex 0.00754033503957681 33.9953670003891 4.51194637207664e-14
  endloop
endfacet
facet normal 0.130526192220052 0.99144486137381 0.0
  outer loop
    vertex 8.80738786852531 32.8368450942174 4.51194637207664e-14
    vertex 0.00754033503957681 33.9953670003891 11.5
    vertex 8.80738786852531 32.8368450942174 11.5
  endloop
endfacet
facet normal -0.923879532511287 0.382683432365089 0.0
  outer loop
    vertex -31.3012844243103 12.4953670003891 21.5
    vertex -31.8811834116326 11.0953670003891 7.00000000000005
    vertex -31.8811834116326 11.0953670003891 21.5
  endloop
endfacet
facet normal -0.923879532511287 0.382683432365089 0.0
  outer loop
    vertex -31.8811834116326 11.0953670003891 7.00000000000005
    vertex -32.8339377587887 8.79521453387479 4.51194637207664e-14
    vertex -32.8339377587887 8.79521453387479 7.00000000000005
  endloop
endfacet
facet normal -0.923879532511287 0.382683432365089 0.0
  outer loop
    vertex -32.8339377587887 8.79521453387479 4.51194637207664e-14
    vertex -31.8811834116326 11.0953670003891 7.00000000000005
    vertex -29.4373233936313 16.9953670003891 4.51194637207664e-14
  endloop
endfacet
facet normal -0.923879532511287 0.382683432365089 0.0
  outer loop
    vertex -29.4373233936313 16.9953670003891 4.51194637207664e-14
    vertex -31.8811834116326 11.0953670003891 7.00000000000005
    vertex -31.3012844243103 12.4953670003891 21.5
  endloop
endfacet
facet normal -0.923879532511287 0.382683432365089 0.0
  outer loop
    vertex -29.4373233936313 16.9953670003891 4.51194637207664e-14
    vertex -31.3012844243103 12.4953670003891 21.5
    vertex -29.4373233936313 16.9953670003891 21.5
  endloop
endfacet
facet normal -0.923879532511287 0.382683432365089 0.0
  outer loop
    vertex -29.4373233936313 16.9953670003891 4.51194637207664e-14
    vertex -29.4373233936313 16.9953670003891 21.5
    vertex -29.4373233936313 16.9953670003891 11.5
  endloop
endfacet
facet normal -0.99144486137381 0.130526192220053 0.0
  outer loop
    vertex -32.8339377587887 8.79521453387479 7.00000000000005
    vertex -33.9924596649604 -0.00463299961091086 4.51194637207664e-14
    vertex -33.9924596649604 -0.00463299961091086 7.00000000000005
  endloop
endfacet
facet normal -0.99144486137381 0.130526192220053 0.0
  outer loop
    vertex -33.9924596649604 -0.00463299961091086 4.51194637207664e-14
    vertex -32.8339377587887 8.79521453387479 7.00000000000005
    vertex -32.8339377587887 8.79521453387479 4.51194637207664e-14
  endloop
endfacet
facet normal -0.99144486137381 -0.130526192220053 0.0
  outer loop
    vertex -33.9924596649604 -0.00463299961091086 7.00000000000005
    vertex -32.8339377587887 -8.80448053309661 4.51194637207664e-14
    vertex -32.8339377587887 -8.80448053309661 7.00000000000005
  endloop
endfacet
facet normal -0.99144486137381 -0.130526192220053 0.0
  outer loop
    vertex -32.8339377587887 -8.80448053309661 4.51194637207664e-14
    vertex -33.9924596649604 -0.00463299961091086 7.00000000000005
    vertex -33.9924596649604 -0.00463299961091086 4.51194637207664e-14
  endloop
endfacet
facet normal -0.923879532511287 -0.382683432365089 -0.0
  outer loop
    vertex -31.2967890374379 -12.5154858235662 21.5
    vertex -29.4373233936313 -17.0046329996109 11.5
    vertex -29.4373233936313 -17.0046329996109 21.5
  endloop
endfacet
facet normal -0.923879532511287 -0.382683432365089 -0.0
  outer loop
    vertex -29.4373233936313 -17.0046329996109 11.5
    vertex -31.2967890374379 -12.5154858235662 21.5
    vertex -29.4373233936313 -17.0046329996109 4.51194637207664e-14
  endloop
endfacet
facet normal -0.923879532511287 -0.382683432365089 -0.0
  outer loop
    vertex -29.4373233936313 -17.0046329996109 4.51194637207664e-14
    vertex -31.2967890374379 -12.5154858235662 21.5
    vertex -31.8766880247602 -11.1154858235662 7.00000000000005
  endloop
endfacet
facet normal -0.923879532511287 -0.382683432365089 -0.0
  outer loop
    vertex -29.4373233936313 -17.0046329996109 4.51194637207664e-14
    vertex -31.8766880247602 -11.1154858235662 7.00000000000005
    vertex -32.8339377587887 -8.80448053309661 4.51194637207664e-14
  endloop
endfacet
facet normal -0.923879532511287 -0.382683432365089 -0.0
  outer loop
    vertex -31.8766880247602 -11.1154858235662 7.00000000000005
    vertex -31.2967890374379 -12.5154858235662 21.5
    vertex -31.8766880247602 -11.1154858235662 21.5
  endloop
endfacet
facet normal -0.923879532511287 -0.382683432365089 -0.0
  outer loop
    vertex -32.8339377587887 -8.80448053309661 4.51194637207664e-14
    vertex -31.8766880247602 -11.1154858235662 7.00000000000005
    vertex -32.8339377587887 -8.80448053309661 7.00000000000005
  endloop
endfacet
facet normal 0.130526192220051 -0.991444861373811 0.0
  outer loop
    vertex 0.00754033503957681 12.4953670003891 7.00000000000005
    vertex -3.22769772874193 12.0694398290024 4.51194637207664e-14
    vertex 0.00754033503957681 12.4953670003891 4.51194637207664e-14
  endloop
endfacet
facet normal 0.130526192220051 -0.991444861373811 0.0
  outer loop
    vertex -3.22769772874193 12.0694398290024 4.51194637207664e-14
    vertex 0.00754033503957681 12.4953670003891 7.00000000000005
    vertex -3.22769772874193 12.0694398290024 7.00000000000005
  endloop
endfacet
facet normal -0.60876142900872 0.793353340291235 0.0
  outer loop
    vertex -24.034090225303 24.0369975607317 11.5
    vertex -16.9924596649604 29.44023072906 4.51194637207664e-14
    vertex -24.034090225303 24.0369975607317 4.51194637207664e-14
  endloop
endfacet
facet normal -0.60876142900872 0.793353340291235 0.0
  outer loop
    vertex -16.9924596649604 29.44023072906 4.51194637207664e-14
    vertex -24.034090225303 24.0369975607317 11.5
    vertex -16.9924596649604 29.44023072906 11.5
  endloop
endfacet
facet normal -0.793353340291234 0.608761429008722 0.0
  outer loop
    vertex -24.034090225303 24.0369975607317 11.5
    vertex -29.4373233936313 16.9953670003891 4.51194637207664e-14
    vertex -29.4373233936313 16.9953670003891 11.5
  endloop
endfacet
facet normal -0.793353340291234 0.608761429008722 0.0
  outer loop
    vertex -29.4373233936313 16.9953670003891 4.51194637207664e-14
    vertex -24.034090225303 24.0369975607317 11.5
    vertex -24.034090225303 24.0369975607317 4.51194637207664e-14
  endloop
endfacet
facet normal -0.38268343236509 -0.923879532511287 -0.0
  outer loop
    vertex -8.79230719844614 -32.8461110934392 11.5
    vertex -16.9924596649604 -29.4494967282818 4.51194637207664e-14
    vertex -8.79230719844614 -32.8461110934392 4.51194637207664e-14
  endloop
endfacet
facet normal -0.38268343236509 -0.923879532511287 -0.0
  outer loop
    vertex -16.9924596649604 -29.4494967282818 4.51194637207664e-14
    vertex -8.79230719844614 -32.8461110934392 11.5
    vertex -16.9924596649604 -29.4494967282818 11.5
  endloop
endfacet
facet normal -0.130526192220052 -0.99144486137381 -0.0
  outer loop
    vertex 0.00754033503957681 -34.0046329996109 11.5
    vertex -8.79230719844614 -32.8461110934392 4.51194637207664e-14
    vertex 0.00754033503957681 -34.0046329996109 4.51194637207664e-14
  endloop
endfacet
facet normal -0.130526192220052 -0.99144486137381 -0.0
  outer loop
    vertex -8.79230719844614 -32.8461110934392 4.51194637207664e-14
    vertex 0.00754033503957681 -34.0046329996109 11.5
    vertex -8.79230719844614 -32.8461110934392 11.5
  endloop
endfacet
facet normal 0.793353340291235 0.608761429008721 0.0
  outer loop
    vertex -10.8177772122659 -6.25463299961091 4.51194637207664e-14
    vertex -8.83129442979227 -8.84346776444276 7.00000000000005
    vertex -8.83129442979227 -8.84346776444276 4.51194637207664e-14
  endloop
endfacet
facet normal 0.793353340291235 0.608761429008721 0.0
  outer loop
    vertex -8.83129442979227 -8.84346776444276 7.00000000000005
    vertex -10.8177772122659 -6.25463299961091 4.51194637207664e-14
    vertex -10.8177772122659 -6.25463299961091 7.00000000000005
  endloop
endfacet
facet normal 0.99144486137381 0.130526192220053 0.0
  outer loop
    vertex -12.4924596649604 -0.00463299961091086 4.51194637207664e-14
    vertex -12.0665324935738 -3.23987106339242 7.00000000000005
    vertex -12.0665324935738 -3.23987106339242 4.51194637207664e-14
  endloop
endfacet
facet normal 0.99144486137381 0.130526192220053 0.0
  outer loop
    vertex -12.0665324935738 -3.23987106339242 7.00000000000005
    vertex -12.4924596649604 -0.00463299961091086 4.51194637207664e-14
    vertex -12.4924596649604 -0.00463299961091086 7.00000000000005
  endloop
endfacet
facet normal -0.608761429008721 -0.793353340291235 -0.0
  outer loop
    vertex -16.9924596649604 -29.4494967282818 11.5
    vertex -24.034090225303 -24.0462635599535 4.51194637207664e-14
    vertex -16.9924596649604 -29.4494967282818 4.51194637207664e-14
  endloop
endfacet
facet normal -0.608761429008721 -0.793353340291235 -0.0
  outer loop
    vertex -24.034090225303 -24.0462635599535 4.51194637207664e-14
    vertex -16.9924596649604 -29.4494967282818 11.5
    vertex -24.034090225303 -24.0462635599535 11.5
  endloop
endfacet
facet normal 0.130526192220051 -0.99144486137381 0.0
  outer loop
    vertex 8.80738786852527 -32.8461110934392 11.5
    vertex 0.00754033503957681 -34.0046329996109 4.51194637207664e-14
    vertex 8.80738786852527 -32.8461110934392 4.51194637207664e-14
  endloop
endfacet
facet normal 0.130526192220051 -0.99144486137381 0.0
  outer loop
    vertex 0.00754033503957681 -34.0046329996109 4.51194637207664e-14
    vertex 8.80738786852527 -32.8461110934392 11.5
    vertex 0.00754033503957681 -34.0046329996109 11.5
  endloop
endfacet
facet normal 0.60876142900872 -0.793353340291235 0.0
  outer loop
    vertex 24.0491708953822 -24.0462635599535 11.5
    vertex 17.0075403350396 -29.4494967282818 4.51194637207664e-14
    vertex 24.0491708953822 -24.0462635599535 4.51194637207664e-14
  endloop
endfacet
facet normal 0.60876142900872 -0.793353340291235 0.0
  outer loop
    vertex 17.0075403350396 -29.4494967282818 4.51194637207664e-14
    vertex 24.0491708953822 -24.0462635599535 11.5
    vertex 17.0075403350396 -29.4494967282818 11.5
  endloop
endfacet
facet normal 0.382683432365089 -0.923879532511287 0.0
  outer loop
    vertex 17.0075403350396 -29.4494967282818 11.5
    vertex 8.80738786852527 -32.8461110934392 4.51194637207664e-14
    vertex 17.0075403350396 -29.4494967282818 4.51194637207664e-14
  endloop
endfacet
facet normal 0.382683432365089 -0.923879532511287 0.0
  outer loop
    vertex 8.80738786852527 -32.8461110934392 4.51194637207664e-14
    vertex 17.0075403350396 -29.4494967282818 11.5
    vertex 8.80738786852527 -32.8461110934392 11.5
  endloop
endfacet
facet normal 0.793353340291236 -0.60876142900872 0.0
  outer loop
    vertex 29.4524040637105 -17.0046329996109 4.51194637207664e-14
    vertex 24.0491708953822 -24.0462635599535 11.5
    vertex 24.0491708953822 -24.0462635599535 4.51194637207664e-14
  endloop
endfacet
facet normal 0.793353340291236 -0.60876142900872 0.0
  outer loop
    vertex 24.0491708953822 -24.0462635599535 11.5
    vertex 29.4524040637105 -17.0046329996109 4.51194637207664e-14
    vertex 29.4524040637105 -17.0046329996109 11.5
  endloop
endfacet
facet normal -0.793353340291235 -0.60876142900872 -0.0
  outer loop
    vertex -29.4373233936313 -17.0046329996109 11.5
    vertex -24.034090225303 -24.0462635599535 4.51194637207664e-14
    vertex -24.034090225303 -24.0462635599535 11.5
  endloop
endfacet
facet normal -0.793353340291235 -0.60876142900872 -0.0
  outer loop
    vertex -24.034090225303 -24.0462635599535 4.51194637207664e-14
    vertex -29.4373233936313 -17.0046329996109 11.5
    vertex -29.4373233936313 -17.0046329996109 4.51194637207664e-14
  endloop
endfacet
facet normal 0.923879532511286 -0.382683432365091 0.0
  outer loop
    vertex 32.8490184288679 -8.80448053309664 4.51194637207664e-14
    vertex 29.4524040637105 -17.0046329996109 11.5
    vertex 29.4524040637105 -17.0046329996109 4.51194637207664e-14
  endloop
endfacet
facet normal 0.923879532511286 -0.382683432365091 0.0
  outer loop
    vertex 29.4524040637105 -17.0046329996109 11.5
    vertex 32.8490184288679 -8.80448053309664 4.51194637207664e-14
    vertex 31.6860866186466 -11.612046281448 7.00000000000005
  endloop
endfacet
facet normal 0.923879532511286 -0.382683432365091 0.0
  outer loop
    vertex 31.6860866186466 -11.612046281448 7.00000000000005
    vertex 32.8490184288679 -8.80448053309664 4.51194637207664e-14
    vertex 32.8490184288679 -8.80448053309664 7.00000000000005
  endloop
endfacet
facet normal 0.923879532511286 -0.382683432365091 0.0
  outer loop
    vertex 31.6860866186466 -11.612046281448 11.5
    vertex 29.4524040637105 -17.0046329996109 11.5
    vertex 31.6860866186466 -11.612046281448 7.00000000000005
  endloop
endfacet
facet normal 0.130526192220051 0.99144486137381 0.0
  outer loop
    vertex -3.22769772874194 -12.0787058282243 7.00000000000005
    vertex 0.00754033503957681 -12.5046329996109 4.51194637207664e-14
    vertex -3.22769772874194 -12.0787058282243 4.51194637207664e-14
  endloop
endfacet
facet normal 0.130526192220051 0.99144486137381 0.0
  outer loop
    vertex 0.00754033503957681 -12.5046329996109 4.51194637207664e-14
    vertex -3.22769772874194 -12.0787058282243 7.00000000000005
    vertex 0.00754033503957681 -12.5046329996109 7.00000000000005
  endloop
endfacet
facet normal -0.60876142900872 -0.793353340291235 -0.0
  outer loop
    vertex 23.0579402573358 23.0457669226853 11.5
    vertex 16.3066344291571 28.2262260887464 7.00000000000005
    vertex 23.0579402573358 23.0457669226853 7.00000000000005
  endloop
endfacet
facet normal -0.60876142900872 -0.793353340291235 -0.0
  outer loop
    vertex 16.3066344291571 28.2262260887464 7.00000000000005
    vertex 23.0579402573358 23.0457669226853 11.5
    vertex 16.3066344291571 28.2262260887464 11.5
  endloop
endfacet
facet normal -0.130526192220051 0.991444861373811 0.0
  outer loop
    vertex 0.00754033503957681 -12.5046329996109 7.00000000000005
    vertex 3.24277839882108 -12.0787058282243 4.51194637207664e-14
    vertex 0.00754033503957681 -12.5046329996109 4.51194637207664e-14
  endloop
endfacet
facet normal -0.130526192220051 0.991444861373811 0.0
  outer loop
    vertex 3.24277839882108 -12.0787058282243 4.51194637207664e-14
    vertex 0.00754033503957681 -12.5046329996109 7.00000000000005
    vertex 3.24277839882108 -12.0787058282243 7.00000000000005
  endloop
endfacet
facet normal -0.382683432365089 0.923879532511287 0.0
  outer loop
    vertex 3.24277839882108 -12.0787058282243 7.00000000000005
    vertex 6.25754033503958 -10.8299505469164 4.51194637207664e-14
    vertex 3.24277839882108 -12.0787058282243 4.51194637207664e-14
  endloop
endfacet
facet normal -0.382683432365089 0.923879532511287 0.0
  outer loop
    vertex 6.25754033503958 -10.8299505469164 4.51194637207664e-14
    vertex 3.24277839882108 -12.0787058282243 7.00000000000005
    vertex 6.25754033503958 -10.8299505469164 7.00000000000005
  endloop
endfacet
facet normal -0.60876142900872 0.793353340291236 0.0
  outer loop
    vertex 6.25754033503958 -10.8299505469164 7.00000000000005
    vertex 8.84637509987142 -8.84346776444276 4.51194637207664e-14
    vertex 6.25754033503958 -10.8299505469164 4.51194637207664e-14
  endloop
endfacet
facet normal -0.60876142900872 0.793353340291236 0.0
  outer loop
    vertex 8.84637509987142 -8.84346776444276 4.51194637207664e-14
    vertex 6.25754033503958 -10.8299505469164 7.00000000000005
    vertex 8.84637509987142 -8.84346776444276 7.00000000000005
  endloop
endfacet
facet normal -0.793353340291236 0.608761429008719 0.0
  outer loop
    vertex 10.8328578823451 -6.25463299961092 7.00000000000005
    vertex 8.84637509987142 -8.84346776444276 4.51194637207664e-14
    vertex 8.84637509987142 -8.84346776444276 7.00000000000005
  endloop
endfacet
facet normal -0.793353340291236 0.608761429008719 0.0
  outer loop
    vertex 8.84637509987142 -8.84346776444276 4.51194637207664e-14
    vertex 10.8328578823451 -6.25463299961092 7.00000000000005
    vertex 10.8328578823451 -6.25463299961092 4.51194637207664e-14
  endloop
endfacet
facet normal -0.923879532511286 0.382683432365091 0.0
  outer loop
    vertex 12.0816131636529 -3.23987106339243 7.00000000000005
    vertex 10.8328578823451 -6.25463299961092 4.51194637207664e-14
    vertex 10.8328578823451 -6.25463299961092 7.00000000000005
  endloop
endfacet
facet normal -0.923879532511286 0.382683432365091 0.0
  outer loop
    vertex 10.8328578823451 -6.25463299961092 4.51194637207664e-14
    vertex 12.0816131636529 -3.23987106339243 7.00000000000005
    vertex 12.0816131636529 -3.23987106339243 4.51194637207664e-14
  endloop
endfacet
facet normal -0.99144486137381 0.130526192220052 0.0
  outer loop
    vertex 12.5075403350396 -0.0046329996109165 7.00000000000005
    vertex 12.0816131636529 -3.23987106339243 4.51194637207664e-14
    vertex 12.0816131636529 -3.23987106339243 7.00000000000005
  endloop
endfacet
facet normal -0.99144486137381 0.130526192220052 0.0
  outer loop
    vertex 12.0816131636529 -3.23987106339243 4.51194637207664e-14
    vertex 12.5075403350396 -0.0046329996109165 7.00000000000005
    vertex 12.5075403350396 -0.0046329996109165 4.51194637207664e-14
  endloop
endfacet
facet normal -0.991444861373811 -0.130526192220049 -0.0
  outer loop
    vertex 12.0816131636529 3.23060506417059 7.00000000000005
    vertex 12.5075403350396 -0.0046329996109165 4.51194637207664e-14
    vertex 12.5075403350396 -0.0046329996109165 7.00000000000005
  endloop
endfacet
facet normal -0.991444861373811 -0.130526192220049 -0.0
  outer loop
    vertex 12.5075403350396 -0.0046329996109165 4.51194637207664e-14
    vertex 12.0816131636529 3.23060506417059 7.00000000000005
    vertex 12.0816131636529 3.23060506417059 4.51194637207664e-14
  endloop
endfacet
facet normal -0.923879532511286 -0.382683432365091 -0.0
  outer loop
    vertex 10.8328578823451 6.24536700038908 7.00000000000005
    vertex 12.0816131636529 3.23060506417059 4.51194637207664e-14
    vertex 12.0816131636529 3.23060506417059 7.00000000000005
  endloop
endfacet
facet normal -0.923879532511286 -0.382683432365091 -0.0
  outer loop
    vertex 12.0816131636529 3.23060506417059 4.51194637207664e-14
    vertex 10.8328578823451 6.24536700038908 7.00000000000005
    vertex 10.8328578823451 6.24536700038908 4.51194637207664e-14
  endloop
endfacet
facet normal -0.793353340291236 -0.60876142900872 -0.0
  outer loop
    vertex 8.84637509987142 8.83420176522093 7.00000000000005
    vertex 10.8328578823451 6.24536700038908 4.51194637207664e-14
    vertex 10.8328578823451 6.24536700038908 7.00000000000005
  endloop
endfacet
facet normal -0.793353340291236 -0.60876142900872 -0.0
  outer loop
    vertex 10.8328578823451 6.24536700038908 4.51194637207664e-14
    vertex 8.84637509987142 8.83420176522093 7.00000000000005
    vertex 8.84637509987142 8.83420176522093 4.51194637207664e-14
  endloop
endfacet
facet normal -0.60876142900872 -0.793353340291236 -0.0
  outer loop
    vertex 8.84637509987142 8.83420176522093 7.00000000000005
    vertex 6.25754033503958 10.8206845476946 4.51194637207664e-14
    vertex 8.84637509987142 8.83420176522093 4.51194637207664e-14
  endloop
endfacet
facet normal -0.60876142900872 -0.793353340291236 -0.0
  outer loop
    vertex 6.25754033503958 10.8206845476946 4.51194637207664e-14
    vertex 8.84637509987142 8.83420176522093 7.00000000000005
    vertex 6.25754033503958 10.8206845476946 7.00000000000005
  endloop
endfacet
facet normal -0.382683432365091 -0.923879532511286 -0.0
  outer loop
    vertex 6.25754033503958 10.8206845476946 7.00000000000005
    vertex 3.24277839882109 12.0694398290024 4.51194637207664e-14
    vertex 6.25754033503958 10.8206845476946 4.51194637207664e-14
  endloop
endfacet
facet normal -0.382683432365091 -0.923879532511286 -0.0
  outer loop
    vertex 3.24277839882109 12.0694398290024 4.51194637207664e-14
    vertex 6.25754033503958 10.8206845476946 7.00000000000005
    vertex 3.24277839882109 12.0694398290024 7.00000000000005
  endloop
endfacet
facet normal -0.130526192220052 -0.99144486137381 -0.0
  outer loop
    vertex 3.24277839882109 12.0694398290024 7.00000000000005
    vertex 0.00754033503957681 12.4953670003891 4.51194637207664e-14
    vertex 3.24277839882109 12.0694398290024 4.51194637207664e-14
  endloop
endfacet
facet normal -0.130526192220052 -0.99144486137381 -0.0
  outer loop
    vertex 0.00754033503957681 12.4953670003891 4.51194637207664e-14
    vertex 3.24277839882109 12.0694398290024 7.00000000000005
    vertex 0.00754033503957681 12.4953670003891 7.00000000000005
  endloop
endfacet
facet normal -0.382683432365091 -0.923879532511286 -0.0
  outer loop
    vertex 16.3066344291571 28.2262260887464 11.5
    vertex 8.44457227399087 31.4827988616365 7.00000000000005
    vertex 16.3066344291571 28.2262260887464 7.00000000000005
  endloop
endfacet
facet normal -0.382683432365091 -0.923879532511286 -0.0
  outer loop
    vertex 8.44457227399087 31.4827988616365 7.00000000000005
    vertex 16.3066344291571 28.2262260887464 11.5
    vertex 8.44457227399087 31.4827988616365 11.5
  endloop
endfacet
facet normal 0.0 -1.0 0.0
  outer loop
    vertex -27.8233187533178 11.0953670003891 21.5
    vertex -28.7924596649604 11.0953670003891 7.00000000000005
    vertex -27.8233187533178 11.0953670003891 7.00000000000005
  endloop
endfacet
facet normal 0.0 -1.0 0.0
  outer loop
    vertex -28.7924596649604 11.0953670003891 7.00000000000005
    vertex -27.8233187533178 11.0953670003891 21.5
    vertex -28.7924596649604 11.0953670003891 21.5
  endloop
endfacet
facet normal -0.923879532511287 0.382683432365091 0.0
  outer loop
    vertex 30.1817572461691 -11.612046281448 11.5
    vertex 28.2383994233969 -16.3037270937285 7.00000000000005
    vertex 28.2383994233969 -16.3037270937285 11.5
  endloop
endfacet
facet normal -0.923879532511287 0.382683432365091 0.0
  outer loop
    vertex 28.2383994233969 -16.3037270937285 7.00000000000005
    vertex 30.1817572461691 -11.612046281448 11.5
    vertex 30.1817572461691 -11.612046281448 7.00000000000005
  endloop
endfacet
facet normal -0.793353340291234 0.608761429008722 0.0
  outer loop
    vertex 28.2383994233969 -16.3037270937285 11.5
    vertex 23.0579402573358 -23.0550329219071 7.00000000000005
    vertex 23.0579402573358 -23.0550329219071 11.5
  endloop
endfacet
facet normal -0.793353340291234 0.608761429008722 0.0
  outer loop
    vertex 23.0579402573358 -23.0550329219071 7.00000000000005
    vertex 28.2383994233969 -16.3037270937285 11.5
    vertex 28.2383994233969 -16.3037270937285 7.00000000000005
  endloop
endfacet
facet normal -0.608761429008721 0.793353340291235 0.0
  outer loop
    vertex 16.3066344291571 -28.2354920879683 11.5
    vertex 23.0579402573358 -23.0550329219071 7.00000000000005
    vertex 16.3066344291571 -28.2354920879683 7.00000000000005
  endloop
endfacet
facet normal -0.608761429008721 0.793353340291235 0.0
  outer loop
    vertex 23.0579402573358 -23.0550329219071 7.00000000000005
    vertex 16.3066344291571 -28.2354920879683 11.5
    vertex 23.0579402573358 -23.0550329219071 11.5
  endloop
endfacet
facet normal -0.382683432365089 0.923879532511287 0.0
  outer loop
    vertex 8.44457227399084 -31.4920648608584 11.5
    vertex 16.3066344291571 -28.2354920879683 7.00000000000005
    vertex 8.44457227399084 -31.4920648608584 7.00000000000005
  endloop
endfacet
facet normal -0.382683432365089 0.923879532511287 0.0
  outer loop
    vertex 16.3066344291571 -28.2354920879683 7.00000000000005
    vertex 8.44457227399084 -31.4920648608584 11.5
    vertex 16.3066344291571 -28.2354920879683 11.5
  endloop
endfacet
facet normal -0.130526192220051 0.99144486137381 0.0
  outer loop
    vertex 0.00754033503956553 -32.6028211878459 11.5
    vertex 8.44457227399084 -31.4920648608584 7.00000000000005
    vertex 0.00754033503956553 -32.6028211878459 7.00000000000005
  endloop
endfacet
facet normal -0.130526192220051 0.99144486137381 0.0
  outer loop
    vertex 8.44457227399084 -31.4920648608584 7.00000000000005
    vertex 0.00754033503956553 -32.6028211878459 11.5
    vertex 8.44457227399084 -31.4920648608584 11.5
  endloop
endfacet
facet normal 0.130526192220052 0.99144486137381 0.0
  outer loop
    vertex -8.42949160391177 -31.4920648608584 11.5
    vertex 0.00754033503956553 -32.6028211878459 7.00000000000005
    vertex -8.42949160391177 -31.4920648608584 7.00000000000005
  endloop
endfacet
facet normal 0.130526192220052 0.99144486137381 0.0
  outer loop
    vertex 0.00754033503956553 -32.6028211878459 7.00000000000005
    vertex -8.42949160391177 -31.4920648608584 11.5
    vertex 0.00754033503956553 -32.6028211878459 11.5
  endloop
endfacet
facet normal -0.130526192220052 -0.99144486137381 -0.0
  outer loop
    vertex 8.44457227399087 31.4827988616365 11.5
    vertex 0.00754033503956553 32.5935551886241 7.00000000000005
    vertex 8.44457227399087 31.4827988616365 7.00000000000005
  endloop
endfacet
facet normal -0.130526192220052 -0.99144486137381 -0.0
  outer loop
    vertex 0.00754033503956553 32.5935551886241 7.00000000000005
    vertex 8.44457227399087 31.4827988616365 11.5
    vertex 0.00754033503956553 32.5935551886241 11.5
  endloop
endfacet
facet normal 0.130526192220051 -0.99144486137381 0.0
  outer loop
    vertex 0.00754033503956553 32.5935551886241 11.5
    vertex -8.42949160391165 31.4827988616366 7.00000000000005
    vertex 0.00754033503956553 32.5935551886241 7.00000000000005
  endloop
endfacet
facet normal 0.130526192220051 -0.99144486137381 0.0
  outer loop
    vertex -8.42949160391165 31.4827988616366 7.00000000000005
    vertex 0.00754033503956553 32.5935551886241 11.5
    vertex -8.42949160391165 31.4827988616366 11.5
  endloop
endfacet
facet normal 0.0 0.0 -1.0
  outer loop
    vertex -8.79230719844613 32.8368450942174 4.51194637207664e-14
    vertex -12.4924596649604 -0.00463299961091086 4.51194637207664e-14
    vertex -16.9924596649604 29.44023072906 4.51194637207664e-14
  endloop
endfacet
facet normal 0.0 0.0 -1.0
  outer loop
    vertex -12.4924596649604 -0.00463299961091086 4.51194637207664e-14
    vertex -8.79230719844613 32.8368450942174 4.51194637207664e-14
    vertex -12.0665324935738 3.2306050641706 4.51194637207664e-14
  endloop
endfacet
facet normal 0.0 0.0 -1.0
  outer loop
    vertex -12.0665324935738 3.2306050641706 4.51194637207664e-14
    vertex -8.79230719844613 32.8368450942174 4.51194637207664e-14
    vertex -10.8177772122659 6.24536700038909 4.51194637207664e-14
  endloop
endfacet
facet normal 0.0 0.0 -1.0
  outer loop
    vertex -10.8177772122659 6.24536700038909 4.51194637207664e-14
    vertex -8.79230719844613 32.8368450942174 4.51194637207664e-14
    vertex -8.83129442979227 8.83420176522093 4.51194637207664e-14
  endloop
endfacet
facet normal 0.0 0.0 -1.0
  outer loop
    vertex -8.83129442979227 8.83420176522093 4.51194637207664e-14
    vertex -8.79230719844613 32.8368450942174 4.51194637207664e-14
    vertex -6.24245966496042 10.8206845476946 4.51194637207664e-14
  endloop
endfacet
facet normal 0.0 0.0 -1.0
  outer loop
    vertex -6.24245966496042 10.8206845476946 4.51194637207664e-14
    vertex -8.79230719844613 32.8368450942174 4.51194637207664e-14
    vertex 0.00754033503957681 33.9953670003891 4.51194637207664e-14
  endloop
endfacet
facet normal 0.0 0.0 -1.0
  outer loop
    vertex -6.24245966496042 10.8206845476946 4.51194637207664e-14
    vertex 0.00754033503957681 33.9953670003891 4.51194637207664e-14
    vertex -3.22769772874193 12.0694398290024 4.51194637207664e-14
  endloop
endfacet
facet normal 0.0 0.0 -1.0
  outer loop
    vertex -3.22769772874193 12.0694398290024 4.51194637207664e-14
    vertex 0.00754033503957681 33.9953670003891 4.51194637207664e-14
    vertex 0.00754033503957681 12.4953670003891 4.51194637207664e-14
  endloop
endfacet
facet normal 0.0 0.0 -1.0
  outer loop
    vertex 0.00754033503957681 12.4953670003891 4.51194637207664e-14
    vertex 0.00754033503957681 33.9953670003891 4.51194637207664e-14
    vertex 8.80738786852531 32.8368450942174 4.51194637207664e-14
  endloop
endfacet
facet normal 0.0 0.0 -1.0
  outer loop
    vertex 0.00754033503957681 12.4953670003891 4.51194637207664e-14
    vertex 8.80738786852531 32.8368450942174 4.51194637207664e-14
    vertex 3.24277839882109 12.0694398290024 4.51194637207664e-14
  endloop
endfacet
facet normal 0.0 0.0 -1.0
  outer loop
    vertex 3.24277839882109 12.0694398290024 4.51194637207664e-14
    vertex 8.80738786852531 32.8368450942174 4.51194637207664e-14
    vertex 6.25754033503958 10.8206845476946 4.51194637207664e-14
  endloop
endfacet
facet normal 0.0 0.0 -1.0
  outer loop
    vertex 6.25754033503958 10.8206845476946 4.51194637207664e-14
    vertex 8.80738786852531 32.8368450942174 4.51194637207664e-14
    vertex 8.84637509987142 8.83420176522093 4.51194637207664e-14
  endloop
endfacet
facet normal 0.0 0.0 -1.0
  outer loop
    vertex 8.84637509987142 8.83420176522093 4.51194637207664e-14
    vertex 8.80738786852531 32.8368450942174 4.51194637207664e-14
    vertex 17.0075403350396 29.44023072906 4.51194637207664e-14
  endloop
endfacet
facet normal 0.0 0.0 -1.0
  outer loop
    vertex 8.84637509987142 8.83420176522093 4.51194637207664e-14
    vertex 17.0075403350396 29.44023072906 4.51194637207664e-14
    vertex 10.8328578823451 6.24536700038908 4.51194637207664e-14
  endloop
endfacet
facet normal 0.0 0.0 -1.0
  outer loop
    vertex 10.8328578823451 6.24536700038908 4.51194637207664e-14
    vertex 17.0075403350396 29.44023072906 4.51194637207664e-14
    vertex 12.0816131636529 3.23060506417059 4.51194637207664e-14
  endloop
endfacet
facet normal 0.0 0.0 -1.0
  outer loop
    vertex 12.0816131636529 3.23060506417059 4.51194637207664e-14
    vertex 17.0075403350396 29.44023072906 4.51194637207664e-14
    vertex 12.5075403350396 -0.0046329996109165 4.51194637207664e-14
  endloop
endfacet
facet normal 0.0 0.0 -1.0
  outer loop
    vertex 12.5075403350396 -0.0046329996109165 4.51194637207664e-14
    vertex 17.0075403350396 29.44023072906 4.51194637207664e-14
    vertex 17.0075403350396 -29.4494967282818 4.51194637207664e-14
  endloop
endfacet
facet normal 0.0 0.0 -1.0
  outer loop
    vertex 17.0075403350396 -29.4494967282818 4.51194637207664e-14
    vertex 17.0075403350396 29.44023072906 4.51194637207664e-14
    vertex 24.0491708953822 -24.0462635599535 4.51194637207664e-14
  endloop
endfacet
facet normal 0.0 0.0 -1.0
  outer loop
    vertex 24.0491708953822 -24.0462635599535 4.51194637207664e-14
    vertex 17.0075403350396 29.44023072906 4.51194637207664e-14
    vertex 24.0491708953822 24.0369975607317 4.51194637207664e-14
  endloop
endfacet
facet normal 0.0 0.0 -1.0
  outer loop
    vertex 24.0491708953822 -24.0462635599535 4.51194637207664e-14
    vertex 24.0491708953822 24.0369975607317 4.51194637207664e-14
    vertex 29.4524040637105 -17.0046329996109 4.51194637207664e-14
  endloop
endfacet
facet normal 0.0 0.0 -1.0
  outer loop
    vertex 29.4524040637105 -17.0046329996109 4.51194637207664e-14
    vertex 24.0491708953822 24.0369975607317 4.51194637207664e-14
    vertex 29.4524040637105 16.9953670003891 4.51194637207664e-14
  endloop
endfacet
facet normal 0.0 0.0 -1.0
  outer loop
    vertex 29.4524040637105 -17.0046329996109 4.51194637207664e-14
    vertex 29.4524040637105 16.9953670003891 4.51194637207664e-14
    vertex 32.8490184288679 -8.80448053309664 4.51194637207664e-14
  endloop
endfacet
facet normal 0.0 0.0 -1.0
  outer loop
    vertex 32.8490184288679 -8.80448053309664 4.51194637207664e-14
    vertex 29.4524040637105 16.9953670003891 4.51194637207664e-14
    vertex 32.8490184288679 8.79521453387477 4.51194637207664e-14
  endloop
endfacet
facet normal 0.0 0.0 -1.0
  outer loop
    vertex 32.8490184288679 -8.80448053309664 4.51194637207664e-14
    vertex 32.8490184288679 8.79521453387477 4.51194637207664e-14
    vertex 34.0075403350396 -0.00463299961092214 4.51194637207664e-14
  endloop
endfacet
facet normal 0.0 0.0 -1.0
  outer loop
    vertex -32.8339377587887 8.79521453387479 4.51194637207664e-14
    vertex -32.8339377587887 -8.80448053309661 4.51194637207664e-14
    vertex -33.9924596649604 -0.00463299961091086 4.51194637207664e-14
  endloop
endfacet
facet normal 0.0 0.0 -1.0
  outer loop
    vertex -32.8339377587887 -8.80448053309661 4.51194637207664e-14
    vertex -32.8339377587887 8.79521453387479 4.51194637207664e-14
    vertex -29.4373233936313 16.9953670003891 4.51194637207664e-14
  endloop
endfacet
facet normal 0.0 0.0 -1.0
  outer loop
    vertex -32.8339377587887 -8.80448053309661 4.51194637207664e-14
    vertex -29.4373233936313 16.9953670003891 4.51194637207664e-14
    vertex -29.4373233936313 -17.0046329996109 4.51194637207664e-14
  endloop
endfacet
facet normal 0.0 0.0 -1.0
  outer loop
    vertex -29.4373233936313 -17.0046329996109 4.51194637207664e-14
    vertex -29.4373233936313 16.9953670003891 4.51194637207664e-14
    vertex -24.034090225303 24.0369975607317 4.51194637207664e-14
  endloop
endfacet
facet normal 0.0 0.0 -1.0
  outer loop
    vertex -29.4373233936313 -17.0046329996109 4.51194637207664e-14
    vertex -24.034090225303 24.0369975607317 4.51194637207664e-14
    vertex -24.034090225303 -24.0462635599535 4.51194637207664e-14
  endloop
endfacet
facet normal 0.0 0.0 -1.0
  outer loop
    vertex -24.034090225303 -24.0462635599535 4.51194637207664e-14
    vertex -24.034090225303 24.0369975607317 4.51194637207664e-14
    vertex -16.9924596649604 -29.4494967282818 4.51194637207664e-14
  endloop
endfacet
facet normal 0.0 0.0 -1.0
  outer loop
    vertex -16.9924596649604 -29.4494967282818 4.51194637207664e-14
    vertex -24.034090225303 24.0369975607317 4.51194637207664e-14
    vertex -16.9924596649604 29.44023072906 4.51194637207664e-14
  endloop
endfacet
facet normal 0.0 0.0 -1.0
  outer loop
    vertex -16.9924596649604 -29.4494967282818 4.51194637207664e-14
    vertex -16.9924596649604 29.44023072906 4.51194637207664e-14
    vertex -8.79230719844614 -32.8461110934392 4.51194637207664e-14
  endloop
endfacet
facet normal 0.0 0.0 -1.0
  outer loop
    vertex -8.79230719844614 -32.8461110934392 4.51194637207664e-14
    vertex -16.9924596649604 29.44023072906 4.51194637207664e-14
    vertex -12.4924596649604 -0.00463299961091086 4.51194637207664e-14
  endloop
endfacet
facet normal 0.0 0.0 -1.0
  outer loop
    vertex -8.79230719844614 -32.8461110934392 4.51194637207664e-14
    vertex -12.4924596649604 -0.00463299961091086 4.51194637207664e-14
    vertex -12.0665324935738 -3.23987106339242 4.51194637207664e-14
  endloop
endfacet
facet normal 0.0 0.0 -1.0
  outer loop
    vertex -8.79230719844614 -32.8461110934392 4.51194637207664e-14
    vertex -12.0665324935738 -3.23987106339242 4.51194637207664e-14
    vertex -10.8177772122659 -6.25463299961091 4.51194637207664e-14
  endloop
endfacet
facet normal 0.0 0.0 -1.0
  outer loop
    vertex -8.79230719844614 -32.8461110934392 4.51194637207664e-14
    vertex -10.8177772122659 -6.25463299961091 4.51194637207664e-14
    vertex -8.83129442979227 -8.84346776444276 4.51194637207664e-14
  endloop
endfacet
facet normal 0.0 0.0 -1.0
  outer loop
    vertex -8.79230719844614 -32.8461110934392 4.51194637207664e-14
    vertex -8.83129442979227 -8.84346776444276 4.51194637207664e-14
    vertex -6.24245966496042 -10.8299505469164 4.51194637207664e-14
  endloop
endfacet
facet normal 0.0 0.0 -1.0
  outer loop
    vertex -8.79230719844614 -32.8461110934392 4.51194637207664e-14
    vertex -6.24245966496042 -10.8299505469164 4.51194637207664e-14
    vertex 0.00754033503957681 -34.0046329996109 4.51194637207664e-14
  endloop
endfacet
facet normal 0.0 0.0 -1.0
  outer loop
    vertex 0.00754033503957681 -34.0046329996109 4.51194637207664e-14
    vertex -6.24245966496042 -10.8299505469164 4.51194637207664e-14
    vertex -3.22769772874194 -12.0787058282243 4.51194637207664e-14
  endloop
endfacet
facet normal 0.0 0.0 -1.0
  outer loop
    vertex 0.00754033503957681 -34.0046329996109 4.51194637207664e-14
    vertex -3.22769772874194 -12.0787058282243 4.51194637207664e-14
    vertex 0.00754033503957681 -12.5046329996109 4.51194637207664e-14
  endloop
endfacet
facet normal 0.0 0.0 -1.0
  outer loop
    vertex 0.00754033503957681 -34.0046329996109 4.51194637207664e-14
    vertex 0.00754033503957681 -12.5046329996109 4.51194637207664e-14
    vertex 3.24277839882108 -12.0787058282243 4.51194637207664e-14
  endloop
endfacet
facet normal 0.0 0.0 -1.0
  outer loop
    vertex 0.00754033503957681 -34.0046329996109 4.51194637207664e-14
    vertex 3.24277839882108 -12.0787058282243 4.51194637207664e-14
    vertex 8.80738786852527 -32.8461110934392 4.51194637207664e-14
  endloop
endfacet
facet normal 0.0 0.0 -1.0
  outer loop
    vertex 8.80738786852527 -32.8461110934392 4.51194637207664e-14
    vertex 3.24277839882108 -12.0787058282243 4.51194637207664e-14
    vertex 6.25754033503958 -10.8299505469164 4.51194637207664e-14
  endloop
endfacet
facet normal 0.0 0.0 -1.0
  outer loop
    vertex 8.80738786852527 -32.8461110934392 4.51194637207664e-14
    vertex 6.25754033503958 -10.8299505469164 4.51194637207664e-14
    vertex 8.84637509987142 -8.84346776444276 4.51194637207664e-14
  endloop
endfacet
facet normal 0.0 0.0 -1.0
  outer loop
    vertex 8.80738786852527 -32.8461110934392 4.51194637207664e-14
    vertex 8.84637509987142 -8.84346776444276 4.51194637207664e-14
    vertex 17.0075403350396 -29.4494967282818 4.51194637207664e-14
  endloop
endfacet
facet normal 0.0 0.0 -1.0
  outer loop
    vertex 17.0075403350396 -29.4494967282818 4.51194637207664e-14
    vertex 8.84637509987142 -8.84346776444276 4.51194637207664e-14
    vertex 10.8328578823451 -6.25463299961092 4.51194637207664e-14
  endloop
endfacet
facet normal 0.0 0.0 -1.0
  outer loop
    vertex 17.0075403350396 -29.4494967282818 4.51194637207664e-14
    vertex 10.8328578823451 -6.25463299961092 4.51194637207664e-14
    vertex 12.0816131636529 -3.23987106339243 4.51194637207664e-14
  endloop
endfacet
facet normal 0.0 0.0 -1.0
  outer loop
    vertex 17.0075403350396 -29.4494967282818 4.51194637207664e-14
    vertex 12.0816131636529 -3.23987106339243 4.51194637207664e-14
    vertex 12.5075403350396 -0.0046329996109165 4.51194637207664e-14
  endloop
endfacet
facet normal 0.0 0.0 1.0
  outer loop
    vertex -32.8339377587887 -8.80448053309661 7.00000000000005
    vertex -32.8339377587887 8.79521453387479 7.00000000000005
    vertex -33.9924596649604 -0.00463299961091086 7.00000000000005
  endloop
endfacet
facet normal 0.0 0.0 1.0
  outer loop
    vertex -32.8339377587887 8.79521453387479 7.00000000000005
    vertex -32.8339377587887 -8.80448053309661 7.00000000000005
    vertex -31.8766880247602 -11.1154858235662 7.00000000000005
  endloop
endfacet
facet normal 0.0 0.0 1.0
  outer loop
    vertex -32.8339377587887 8.79521453387479 7.00000000000005
    vertex -31.8766880247602 -11.1154858235662 7.00000000000005
    vertex -31.8811834116326 11.0953670003891 7.00000000000005
  endloop
endfacet
facet normal 0.0 0.0 1.0
  outer loop
    vertex -31.8811834116326 11.0953670003891 7.00000000000005
    vertex -31.8766880247602 -11.1154858235662 7.00000000000005
    vertex -29.7924596649604 11.0953670003891 7.00000000000005
  endloop
endfacet
facet normal 0.0 0.0 1.0
  outer loop
    vertex -29.7924596649604 11.0953670003891 7.00000000000005
    vertex -31.8766880247602 -11.1154858235662 7.00000000000005
    vertex -29.7924596649604 -11.1154858235662 7.00000000000005
  endloop
endfacet
endsolid spacecam_01
